<?xml version="1.0" standalone="no"?>
<!DOCTYPE svg PUBLIC "-//W3C//DTD SVG 1.1//EN" "http://www.w3.org/Graphics/SVG/1.1/DTD/svg11.dtd" >
<svg xmlns="http://www.w3.org/2000/svg" xmlns:xlink="http://www.w3.org/1999/xlink" version="1.1">
<metadata>
Created by FontForge 20161003 at Tue Nov 20 08:52:09 2018
 By www-data
&#60; info@fontfont.de &#62; Copyright Fred Smeijers, 1997. Published by FontShop International.  FontFont Release 20
</metadata>
<defs>
<font id="QuadraatSans-Italic" horiz-adv-x="500" >
  <font-face 
    font-family="QuadraatSans"
    font-weight="400"
    font-style="italic"
    font-stretch="normal"
    units-per-em="1000"
    panose-1="2 0 5 3 5 0 0 9 0 4"
    ascent="800"
    descent="-200"
    x-height="459"
    cap-height="641"
    bbox="-164 -303 1147 846"
    underline-thickness="20"
    underline-position="-166"
    slope="-12"
    unicode-range="U+0020-FB02"
  />
<missing-glyph 
 />
    <glyph glyph-name="fi" unicode="fi" horiz-adv-x="490" 
d="M394 637q-6 1 -16.5 3.5t-23 4.5t-26.5 4t-26 2q-23 0 -43.5 -8t-37 -24.5t-27 -41t-13.5 -58.5l-6 -78h164l82 39l-21 -396q-1 -12 0 -26q0 -12 1 -27t3 -31h-82l20 383l-170 -1l-25 -596h-80l32 596h-91l10 59h81l3 50q7 108 58.5 167t154.5 59q11 0 26.5 -0.5t31 -2
t29.5 -3t21 -3.5z" />
    <glyph glyph-name="fl" unicode="fl" horiz-adv-x="510" 
d="M410 84l4 -85h-83l34 639q-13 3 -26.5 6t-24.5 3q-23 0 -45.5 -7.5t-40.5 -23t-30 -39.5t-15 -58l-6 -78h107l-11 -59h-99l-25 -596h-82l32 596h-91l10 59h81l3 50q7 108 64.5 164.5t160.5 56.5q9 0 22 -1t27 -3l69 12z" />
    <glyph glyph-name=".notdef" 
 />
    <glyph glyph-name=".null" horiz-adv-x="0" 
 />
    <glyph glyph-name="nonmarkingreturn" horiz-adv-x="207" 
 />
    <glyph glyph-name="space" unicode=" " horiz-adv-x="207" 
 />
    <glyph glyph-name="space" unicode="&#xa0;" horiz-adv-x="207" 
 />
    <glyph glyph-name="numbersign" unicode="#" horiz-adv-x="659" 
d="M283 403l-49 -137h142l52 137h-145zM610 403h-131l-51 -137h155l-14 -45h-155l-83 -242l-45 14l76 228h-141l-83 -242l-45 18l79 224h-138l14 45h138l45 137h-146l12 45h151l83 228l41 -17l-75 -211h144l80 228l45 -17l-73 -211h131z" />
    <glyph glyph-name="dollar" unicode="$" 
d="M333 157q0 36 -21.5 62t-50.5 46l-18 -209q41 6 65.5 32.5t24.5 68.5zM247 587q-47 -5 -69.5 -31.5t-22.5 -61.5q0 -20 4.5 -35t13 -27t21 -22t27.5 -20l9 -6zM410 546q-14 7 -28.5 14.5t-32.5 13.5q-14 5 -28.5 8t-31.5 5l-20 -230l35 -23q59 -39 87 -77.5t28 -93.5
q0 -41 -14.5 -72t-39.5 -52.5t-57.5 -33.5t-69.5 -14l-10 -107l-41 1l9 106q-38 2 -77 11.5t-65 20.5l7 79q27 -19 66 -31t74 -15l21 235l-47 31q-44 29 -73 69t-29 90q0 72 46 116t134 51l6 68h41l-6 -67q27 -2 59 -8t75 -22z" />
    <glyph glyph-name="percent" unicode="%" horiz-adv-x="806" 
d="M300 497q0 105 -85 105q-51 0 -81 -42.5t-30 -111.5q0 -105 86 -105q46 0 74 33t35 96q1 6 1 12.5v12.5zM369 494q0 -44 -13.5 -80t-38 -62t-59 -40.5t-75.5 -14.5q-70 0 -108.5 40t-38.5 112v12t1 11q9 82 58.5 129t125.5 47q71 0 109.5 -40t38.5 -114zM288 -21l-52 21
l276 662l53 -21zM700 190q0 105 -85 105q-51 0 -81 -42t-30 -112q0 -105 86 -105q46 0 74 33.5t35 96.5q1 6 1 12v12zM769 188q0 -44 -13.5 -80.5t-38.5 -62.5t-59 -40.5t-75 -14.5q-70 0 -109 40t-39 112q0 6 0.5 12t1.5 12q9 81 58 128.5t126 47.5q71 0 109.5 -40.5
t38.5 -113.5z" />
    <glyph glyph-name="ampersand" unicode="&#x26;" horiz-adv-x="708" 
d="M368 105q-21 20 -43 39.5t-44 42.5q-17 17 -28.5 30t-19.5 24q-8 10 -15 19t-15 19q-5 -5 -10 -8.5t-10 -8.5q-8 -8 -17 -19.5t-17 -26t-13 -30t-5 -31.5q0 -27 10 -48.5t26.5 -35.5t39 -21.5t46.5 -7.5q30 0 60.5 17t54.5 46zM340 534q0 24 -14.5 45.5t-52.5 21.5
q-42 0 -69 -24t-27 -68q0 -36 14 -76t39 -72l22 18q12 9 27 24.5t28.5 35t23 44t9.5 51.5zM554 -9q-25 10 -64 31.5t-79 52.5q-32 -44 -80.5 -65.5t-104.5 -21.5q-83 0 -128 41t-45 108q0 51 26.5 88.5t74.5 74.5l23 18q-36 48 -54 91.5t-18 88.5q0 72 46.5 114.5
t124.5 42.5q68 0 104.5 -32.5t36.5 -90.5q0 -34 -16.5 -64t-40.5 -56.5t-51.5 -48.5t-50.5 -39q12 -15 21.5 -26.5t19.5 -22t20.5 -21.5t24.5 -26q30 -30 70 -61.5t84.5 -60t90 -53.5t86.5 -43zM637 311q-9 0 -20 0.5t-24 -0.5q-53 -2 -92.5 -20t-69.5 -68l31 100
q17 22 40.5 33.5t50 17t54 6t53.5 0.5z" />
    <glyph glyph-name="quoteright" unicode="&#x2019;" horiz-adv-x="214" 
d="M191 569q0 -25 -9 -50.5t-24 -48t-34.5 -40.5t-40.5 -28l-53 9q15 9 29 20t25 25.5t18 32.5t7 41t-12 38.5t-32 21.5q6 28 22.5 43.5t37.5 15.5q33 0 49.5 -24.5t16.5 -55.5z" />
    <glyph glyph-name="parenleft" unicode="(" horiz-adv-x="270" 
d="M279 694q-28 -54 -54 -117.5t-46.5 -132t-33 -140t-12.5 -141.5q0 -39 3.5 -82.5t16.5 -89t38 -91.5t67 -91h-90q-27 29 -48.5 62t-36.5 73.5t-23 91.5t-8 116q0 128 36 254.5t97 248.5z" />
    <glyph glyph-name="parenright" unicode=")" horiz-adv-x="270" 
d="M223 351q0 -128 -36 -254.5t-98 -248.5l-93 -39q27 53 53.5 116.5t46.5 132.5t32.5 140.5t12.5 141.5q0 39 -3.5 82.5t-16.5 89t-38 91.5t-67 91h91q27 -29 48.5 -62t36.5 -73.5t23 -91.5t8 -116z" />
    <glyph glyph-name="asterisk" unicode="*" horiz-adv-x="480" 
d="M144 506l-102 71l28 39l101 -70zM357 286q-32 45 -57 80q-11 15 -21 29.5t-18 25.5q-10 13 -18 25l-119 -158l-41 35l135 176v176h54v-177l126 -176zM350 508l-28 39l102 71l27 -40z" />
    <glyph glyph-name="plus" unicode="+" horiz-adv-x="560" 
d="M398 228h-87v-228l-69 -14l7 152v90h-100l-124 -7l14 69h210v179l69 24l-7 -85v-118h76l142 3v-74z" />
    <glyph glyph-name="comma" unicode="," horiz-adv-x="195" 
d="M166 28q0 -45 -20 -94.5t-58 -98.5h-58q21 27 38 63t17 66q0 34 -9 52.5t-28 26.5q0 23 12.5 43t37.5 20q35 0 51.5 -20.5t16.5 -57.5z" />
    <glyph glyph-name="hyphen" unicode="-" horiz-adv-x="310" 
d="M48 200l-7 79l221 28l7 -79z" />
    <glyph glyph-name="hyphen" unicode="&#xad;" horiz-adv-x="310" 
d="M48 200l-7 79l221 28l7 -79z" />
    <glyph glyph-name="period" unicode="." horiz-adv-x="195" 
d="M165 51q0 -24 -17 -41t-41 -17q-23 0 -40 17t-17 41t17 41t40 17q24 0 41 -17t17 -41z" />
    <glyph glyph-name="slash" unicode="/" horiz-adv-x="252" 
d="M95 -189l-61 13l127 827l57 -13z" />
    <glyph glyph-name="zero" unicode="0" 
d="M361 269q0 71 -22 105t-76 34q-38 0 -61.5 -18t-37 -47.5t-18.5 -68t-5 -78.5q0 -80 25 -113t76 -33q58 0 88.5 52.5t30.5 166.5zM437 260q0 -50 -9 -98t-31.5 -86.5t-61 -62t-97.5 -23.5q-91 0 -132 47t-41 152q0 55 9.5 105.5t33 89t63 61.5t100.5 23q50 0 82 -14.5
t51 -41.5t26 -65.5t7 -86.5z" />
    <glyph glyph-name="one" unicode="1" horiz-adv-x="393" 
d="M267 394l-22 -394h-78l20 380l-127 -23l3 47l215 74z" />
    <glyph glyph-name="two" unicode="2" 
d="M439 -7q-29 2 -57 4.5t-54 2.5h-265l-5 26q66 52 114 93.5t79.5 77t47 66.5t15.5 63q0 42 -25.5 58.5t-63.5 16.5q-26 0 -56 -9.5t-55 -17.5l18 80q33 11 64 15t57 4q32 0 59.5 -6.5t47 -21.5t30.5 -39t11 -59q0 -36 -14.5 -69.5t-37 -63.5t-50 -56.5t-53.5 -48.5
l-22 -18t-22 -19h237v-79z" />
    <glyph glyph-name="three" unicode="3" 
d="M433 349q0 -36 -14.5 -65t-36.5 -53t-48.5 -43t-49.5 -35q32 -3 55 -15.5t38 -31t22.5 -42.5t7.5 -49q0 -59 -22.5 -102.5t-60.5 -73t-87 -44t-101 -14.5q-30 0 -62 4t-52 13l30 64q22 -10 44.5 -13.5t41.5 -3.5q39 0 72.5 11t58 31t38.5 49.5t14 67.5q0 53 -31.5 73.5
t-106.5 20.5h-58l14 65h81q19 12 42 30.5t42 40t32 46t13 48.5q0 35 -29 55.5t-92 20.5q-26 0 -51.5 -5.5t-48.5 -10.5l21 73q21 4 52.5 8.5t66.5 4.5q74 0 119.5 -30.5t45.5 -94.5z" />
    <glyph glyph-name="four" unicode="4" 
d="M113 68h170l17 294zM450 0h-96l-12 -214h-75l12 214h-250l-12 34l291 435h71l-21 -401h110z" />
    <glyph glyph-name="five" unicode="5" 
d="M397 392l-224 -10l-6 -141q34 -12 66.5 -27t64.5 -30q47 -22 78.5 -62t31.5 -100q0 -54 -20 -98.5t-57 -76.5t-89 -49.5t-116 -17.5q-5 0 -14.5 1t-21 2.5t-22.5 4t-18 4.5l30 62q14 -5 29.5 -7.5t27.5 -2.5q40 0 74.5 12.5t59 35t38.5 53.5t14 69q0 20 -7.5 37t-19 30.5
t-25.5 23.5t-28 16l-64 29q-10 4 -23 9.5t-25 10.5q-14 5 -29 11l14 278l304 14z" />
    <glyph glyph-name="six" unicode="6" 
d="M444 657q-81 0 -139 -36.5t-95 -93.5t-54 -126.5t-17 -136.5q0 -43 7 -81t19.5 -66.5t31.5 -45.5t43 -17q34 0 57 21t37 51.5t19.5 65t5.5 60.5q0 42 -11 71t-28 47t-37.5 26t-41.5 8h-44l45 54q6 0 11.5 0.5t10.5 0.5q85 0 131.5 -50t46.5 -139q0 -49 -12 -98.5
t-38 -89.5t-66 -65t-97 -25q-44 0 -76.5 20t-53.5 56.5t-31 87t-10 110.5q0 91 26 174.5t77.5 147.5t127.5 102t175 38h20l32 -71h-72z" />
    <glyph glyph-name="seven" unicode="7" 
d="M143 -217h-82l324 599h-327l34 82h397z" />
    <glyph glyph-name="eight" unicode="8" 
d="M348 160q0 32 -24 67q-12 19 -26.5 35t-28.5 33l-33 37q-56 -46 -83.5 -86t-27.5 -80q0 -25 9 -46t24.5 -36t36 -23.5t44.5 -8.5q46 0 77.5 28.5t31.5 79.5zM363 574q0 48 -28 70.5t-77 22.5q-45 0 -72.5 -22t-27.5 -67q0 -24 17.5 -53.5t45.5 -62.5l40 -47
q17 16 33.5 32t30.5 34q16 20 27 43.5t11 49.5zM444 588q0 -34 -14.5 -64t-37 -56t-48.5 -48t-50 -40l31 -33q22 -23 40.5 -43.5t32.5 -41.5t22 -44.5t8 -51.5q0 -39 -14.5 -71t-41 -54.5t-63 -35t-80.5 -12.5q-41 0 -74.5 11.5t-57.5 32t-37 49.5t-13 65q0 31 9 56.5
t26 48.5t41 46t55 49l22 19l-39 44q-23 25 -39 46t-25.5 40t-14 36.5t-4.5 36.5q0 40 16.5 69t43 47.5t60.5 27.5t69 9q32 0 63.5 -7.5t57 -24t41 -43t15.5 -63.5z" />
    <glyph glyph-name="nine" unicode="9" 
d="M447 205q0 -93 -17.5 -170.5t-58 -133t-105.5 -86t-159 -30.5h-28l-31 62h77q70 0 116.5 27.5t75 74.5t40.5 111t12 138q0 37 -5 74.5t-17 68t-33 50t-54 19.5q-27 0 -47.5 -14t-33.5 -37.5t-19.5 -55t-6.5 -66.5q0 -46 9.5 -81.5t26 -59.5t37.5 -36.5t44 -12.5h39
l-38 -46q-48 -3 -84.5 11.5t-61 44t-37.5 71t-13 91.5q0 52 12.5 97t36.5 78t60 52t84 19q91 0 135 -65.5t44 -194.5z" />
    <glyph glyph-name="colon" unicode=":" horiz-adv-x="195" 
d="M164 48q0 -24 -17 -41t-41 -17q-23 0 -40 17t-17 41t17 41t40 17q24 0 41 -17t17 -41zM181 330q0 -24 -17 -41t-41 -17q-23 0 -40 17t-17 41t17 41t40 17q24 0 41 -17t17 -41z" />
    <glyph glyph-name="semicolon" unicode=";" horiz-adv-x="195" 
d="M166 28q0 -45 -20 -94.5t-58 -98.5h-58q21 27 38 63t17 66q0 34 -9 52.5t-28 26.5q0 23 12.5 43t37.5 20q35 0 51.5 -20.5t16.5 -57.5zM181 330q0 -24 -17 -41t-41 -17q-23 0 -40 17t-17 41t17 41t40 17q24 0 41 -17t17 -41z" />
    <glyph glyph-name="semicolon" unicode="&#x37e;" horiz-adv-x="195" 
d="M166 28q0 -45 -20 -94.5t-58 -98.5h-58q21 27 38 63t17 66q0 34 -9 52.5t-28 26.5q0 23 12.5 43t37.5 20q35 0 51.5 -20.5t16.5 -57.5zM181 330q0 -24 -17 -41t-41 -17q-23 0 -40 17t-17 41t17 41t40 17q24 0 41 -17t17 -41z" />
    <glyph glyph-name="less" unicode="&#x3c;" horiz-adv-x="560" 
d="M446 -16l-103 69l-295 168l403 272l35 -69l-107 -65l-204 -131l313 -173z" />
    <glyph glyph-name="equal" unicode="=" horiz-adv-x="560" 
d="M406 109h-249l-124 -7l14 72l319 -3l171 3v-72zM406 309h-249l-124 -7l11 69h351l142 3v-74z" />
    <glyph glyph-name="greater" unicode="&#x3e;" horiz-adv-x="560" 
d="M231 53l-103 -69l-42 71l313 173l-204 131l-107 65l35 69l403 -271z" />
    <glyph glyph-name="question" unicode="?" horiz-adv-x="341" 
d="M165 51q0 -24 -17 -41t-41 -17q-23 0 -40 17t-17 41t17 41t40 17q24 0 41 -17t17 -41zM334 438q0 -51 -26.5 -93t-61.5 -74q-17 -16 -35 -29t-34 -24q-17 -11 -30 -19t-22 -13l-49 50q25 10 55 26.5t55.5 39.5t42.5 52t17 65q0 29 -20 52t-49 39.5t-61 26t-55 12.5l72 59
q24 0 58.5 -13.5t66 -37t54 -54.5t22.5 -65z" />
    <glyph glyph-name="at" unicode="@" horiz-adv-x="799" 
d="M434 401q-36 0 -63 -18.5t-45 -50t-27 -73t-9 -87.5q0 -18 2.5 -37t8 -34t12.5 -25t16 -10q11 0 29.5 12.5t37.5 28.5q22 18 46 42l12 252h-20zM785 271q0 -60 -16.5 -114.5t-48.5 -95t-78 -64.5t-105 -24q-26 0 -46.5 5t-54.5 22l4 96q-25 -29 -44 -47.5t-35.5 -29.5
t-32 -15.5t-32.5 -4.5q-23 0 -37.5 18.5t-23.5 44t-12.5 53.5t-3.5 46q0 72 20 128.5t55.5 95t85 58.5t108.5 20h23.5t24.5 -2q-5 -21 -7.5 -37t-4.5 -30t-3 -28t-2 -31l-14 -291l5 -3q14 -6 21.5 -8t24.5 -2q27 0 54.5 14.5t50 43t36.5 69.5t14 94q0 68 -18 127t-54 102
t-91 67.5t-130 24.5q-73 0 -132.5 -27.5t-102 -76t-65.5 -114t-23 -140.5q0 -86 24 -147.5t66 -106t99 -74.5t123 -53l-12 -40q-77 7 -146 37t-121.5 83.5t-83.5 130t-31 177.5q0 85 30 160t83.5 130.5t127.5 87.5t161 32q82 0 150 -25.5t117 -72.5t76 -113.5t27 -149.5z
" />
    <glyph glyph-name="A" unicode="A" horiz-adv-x="503" 
d="M267 537l-110 -290h172zM383 0l-41 189h-207l-73 -189h-77l243 588l13 46l77 25l152 -659h-87z" />
    <glyph glyph-name="B" unicode="B" horiz-adv-x="538" 
d="M398 185q0 56 -33 82t-101 26h-85l-13 -226h75q34 0 62.5 7.5t49.5 22t33 36.5t12 52zM372 491q0 44 -27.5 64t-81.5 20h-70l-10 -220h110q30 22 54.5 56t24.5 80zM482 193q0 -50 -20.5 -86.5t-55 -60t-79.5 -35t-93 -11.5h-150l27 543l-5 97h184q87 0 125.5 -36.5
t38.5 -100.5q0 -22 -9 -45.5t-22.5 -44.5t-30.5 -38t-33 -26v-3q17 -4 38.5 -14t40 -28t31.5 -45t13 -66z" />
    <glyph glyph-name="C" unicode="C" horiz-adv-x="480" 
d="M462 541q-19 13 -50.5 25.5t-77.5 12.5q-40 0 -78 -19.5t-68 -58t-48 -96t-18 -133.5q0 -114 47 -162t130 -48q49 0 83.5 20.5t66.5 49.5l-3 -86q-11 -8 -26 -18t-35 -18t-44.5 -13.5t-53.5 -5.5q-121 0 -185 71.5t-64 203.5q0 71 19.5 139.5t57.5 122.5t94.5 87
t130.5 33q37 0 67 -5.5t69 -19.5z" />
    <glyph glyph-name="D" unicode="D" horiz-adv-x="597" 
d="M471 359q0 44 -10 83.5t-32 69t-57.5 46.5t-86.5 17h-91l-26 -509h89q62 0 103 26t66 67.5t35 94t10 105.5zM557 355q0 -72 -18.5 -136.5t-56 -113t-94.5 -77t-133 -28.5h-171l27 543l-5 98h202q65 0 112 -23.5t77.5 -62.5t45 -91t14.5 -109z" />
    <glyph glyph-name="E" unicode="E" horiz-adv-x="473" 
d="M431 575h-238l-12 -216h218l-6 -66h-215l-11 -227h264l-7 -66h-340l27 543l-5 98h332z" />
    <glyph glyph-name="F" unicode="F" horiz-adv-x="439" 
d="M422 575h-226l-14 -216h208l-6 -66h-205l-15 -293h-80l28 543l-5 98h322z" />
    <glyph glyph-name="G" unicode="G" horiz-adv-x="574" 
d="M501 543q-20 12 -58.5 25t-86.5 13q-39 0 -80.5 -15.5t-75.5 -52.5t-55.5 -98.5t-21.5 -152.5q0 -58 15.5 -97.5t41 -63.5t59 -34.5t68.5 -10.5q12 0 26.5 2.5t27.5 6.5t24.5 9t17.5 9l14 187h-122l20 66h185l-18 -246l4 -48q-37 -20 -91.5 -35.5t-111.5 -15.5
q-53 0 -98 17t-77.5 50.5t-51 83t-18.5 114.5q0 71 19 141t59 126t100 90.5t143 34.5q51 0 90 -7.5t70 -16.5z" />
    <glyph glyph-name="H" unicode="H" horiz-adv-x="651" 
d="M533 0h-80l16 302h-289l-16 -302h-80l28 543l-5 98h90l-15 -278h289l10 180l-5 98h90z" />
    <glyph glyph-name="I" unicode="I" horiz-adv-x="282" 
d="M164 0h-80l28 544l-5 97h90z" />
    <glyph glyph-name="J" unicode="J" horiz-adv-x="289" 
d="M167 3q-2 -51 -14 -91.5t-36.5 -69t-62.5 -44t-93 -15.5q-16 0 -32.5 2.5t-24.5 4.5l-20 78q15 -5 40 -11t45 -6q56 0 84 40t32 112l27 540l-6 98h91z" />
    <glyph glyph-name="K" unicode="K" horiz-adv-x="553" 
d="M164 0h-80l28 543l-5 98h90zM289 341l249 -341h-107l-216 302l-29 18l288 321h95z" />
    <glyph glyph-name="L" unicode="L" horiz-adv-x="421" 
d="M395 0h-311l28 543l-5 98h92l-32 -575h235z" />
    <glyph glyph-name="M" unicode="M" horiz-adv-x="807" 
d="M614 0l-9 488l-201 -466l-44 -39l-162 479l-67 -462h-71l99 578l-21 63h91l166 -495l208 490l-1 5h4h62h12l14 -641h-80z" />
    <glyph glyph-name="N" unicode="N" horiz-adv-x="645" 
d="M548 0h-66l-293 482l-24 -482h-71l32 584l-34 57h96l299 -493l24 493h72z" />
    <glyph glyph-name="O" unicode="O" horiz-adv-x="583" 
d="M462 381q0 45 -9 81.5t-27.5 63t-48 41t-71.5 14.5q-40 0 -74 -20t-58.5 -59.5t-38.5 -98.5t-14 -137q0 -98 36.5 -152.5t120.5 -54.5q40 0 73.5 21t58 62t38.5 101t14 138zM545 389q0 -94 -17.5 -168t-53.5 -125t-90.5 -77.5t-127.5 -26.5q-102 0 -160 67t-58 195
q0 75 15.5 146t49.5 126t88 88t132 33q50 0 91 -16t70 -48.5t45 -81t16 -112.5z" />
    <glyph glyph-name="P" unicode="P" horiz-adv-x="497" 
d="M485 453q0 -54 -16 -96t-43.5 -71.5t-64.5 -44.5t-79 -15q-14 0 -28.5 2t-25.5 4l13 54h27q26 0 51 8.5t44 27t30.5 49t11.5 74.5q0 130 -151 130h-60l-31 -575h-79l28 543l-5 97h160q50 0 90.5 -11t69 -34t43.5 -58t15 -84z" />
    <glyph glyph-name="Q" unicode="Q" horiz-adv-x="583" 
d="M462 381q0 45 -9 81.5t-27.5 63t-48 41t-71.5 14.5q-40 0 -74 -20t-58.5 -59.5t-38.5 -98.5t-14 -137q0 -98 37.5 -152.5t123.5 -54.5q36 0 69 19t57.5 58.5t39 100t14.5 144.5zM545 389q0 -168 -55 -268t-169 -123l124 -166l-97 -10l-106 170q-96 5 -150 71t-54 191
q0 75 15 146t48.5 126t88 88t133.5 33q50 0 91 -16t70 -48.5t45 -81t16 -112.5z" />
    <glyph glyph-name="R" unicode="R" horiz-adv-x="569" 
d="M384 487q0 50 -23 69t-75 19h-92l-13 -247h113q30 20 48 41.5t27 42.5t12 40.5t3 34.5zM424 0l-159 266h-88l-13 -266h-80l28 543l-5 97h185q87 0 132 -33.5t45 -116.5q0 -35 -11.5 -65.5t-30 -55.5t-42 -44.5t-48.5 -31.5l187 -293h-100z" />
    <glyph glyph-name="S" unicode="S" horiz-adv-x="450" 
d="M394 540q-35 20 -70 32t-73 12q-57 0 -84.5 -26t-27.5 -64q0 -20 4.5 -35t13.5 -27t21.5 -22t27.5 -20l82 -56q29 -20 50.5 -39t36 -39t21.5 -42.5t7 -50.5q0 -43 -16 -75.5t-43.5 -54t-64 -32.5t-76.5 -11q-41 0 -87.5 10t-77.5 23l7 85q15 -11 35 -19.5t42 -15.5
t43.5 -10.5t39.5 -3.5q50 0 81 25.5t31 72.5q0 38 -23 65t-54 47l-80 53q-44 29 -73.5 69t-29.5 90q0 78 53 123t155 45q29 0 64 -6t83 -24z" />
    <glyph glyph-name="T" unicode="T" horiz-adv-x="449" 
d="M462 575h-193l-31 -575h-80l30 575h-183l6 66h458z" />
    <glyph glyph-name="U" unicode="U" horiz-adv-x="654" 
d="M544 210q-7 -117 -67 -169t-175 -52q-48 0 -88 11.5t-67.5 36t-42 62.5t-11.5 90l19 354l-5 98h89l-23 -447q-4 -71 37.5 -107t112.5 -36q45 0 74 14.5t46 39.5t24.5 59.5t9.5 75.5l14 303l-5 98h83z" />
    <glyph glyph-name="V" unicode="V" horiz-adv-x="489" 
d="M261 55l-13 -46l-75 -25l-139 656h83l106 -523l204 523h77z" />
    <glyph glyph-name="W" unicode="W" horiz-adv-x="788" 
d="M562 57l-12 -50l-75 -18l-77 516l-181 -456l-9 -42l-77 -17l-94 650h80l72 -503l188 483l86 32v-48l69 -464l190 501h78z" />
    <glyph glyph-name="X" unicode="X" horiz-adv-x="510" 
d="M308 334l174 -334h-95l-133 272l-176 -272h-85l228 337l-160 304h96l119 -242l157 242h80z" />
    <glyph glyph-name="Y" unicode="Y" horiz-adv-x="410" 
d="M241 302l-9 -30l-11 -272h-83l15 276l-6 26l-150 339h85l124 -278l168 278h78z" />
    <glyph glyph-name="Z" unicode="Z" horiz-adv-x="456" 
d="M362 474l-249 -408h336v-66h-429l-24 26l99 146l245 403h-307l22 66h385l19 -27z" />
    <glyph glyph-name="bracketleft" unicode="[" horiz-adv-x="280" 
d="M308 630h-145l-28 -744h135l-3 -72l-201 17l32 847l213 24z" />
    <glyph glyph-name="backslash" unicode="\" horiz-adv-x="252" 
d="M119 -185l-39 823l62 13l36 -827z" />
    <glyph glyph-name="bracketright" unicode="]" horiz-adv-x="280" 
d="M182 -162l-213 -24l3 72h145l28 744h-135l3 72l201 -17z" />
    <glyph glyph-name="asciicircum" unicode="^" horiz-adv-x="450" 
d="M369 547l-101 89l-170 -99l-20 29l206 160l114 -149z" />
    <glyph glyph-name="underscore" unicode="_" horiz-adv-x="483" 
d="M0 -97v63h483v-63h-483z" />
    <glyph glyph-name="quoteleft" unicode="&#x2018;" horiz-adv-x="214" 
d="M214 640q-15 -9 -29 -20t-25 -25t-18 -32t-7 -41t12 -39t32 -22q-5 -27 -22 -43t-38 -16q-33 0 -49.5 24.5t-16.5 55.5q0 25 9 50.5t24 48t34.5 40.5t40.5 28z" />
    <glyph glyph-name="a" unicode="a" horiz-adv-x="458" 
d="M292 405q-39 0 -70.5 -19t-53.5 -51.5t-34 -75.5t-12 -90q0 -19 3 -38.5t8.5 -35.5t13.5 -26t17 -10q11 0 32.5 12t43 27.5t39 29t20.5 16.5l13 261h-20zM404 469q-5 -23 -8.5 -39.5t-6 -31t-3.5 -29t-2 -32.5l-12 -253q-2 -38 0.5 -55t5.5 -29l-86 -11l6 96
q-28 -29 -49.5 -47t-41 -29t-39 -15t-41.5 -4q-24 0 -40 16t-25.5 40.5t-13.5 54.5t-4 57q0 69 20 127t59 99.5t96.5 64.5t132.5 23q25 0 52 -3z" />
    <glyph glyph-name="b" unicode="b" horiz-adv-x="457" 
d="M335 297q0 19 -3 38t-8.5 34.5t-13 25t-17.5 9.5q-11 0 -32 -12t-43 -26.5t-39.5 -27.5t-20.5 -16l-13 -263h20q39 0 70.5 19.5t53.5 52t34 75.5t12 91zM413 308q0 -70 -21.5 -128t-60 -99.5t-91 -64.5t-115.5 -23q-16 0 -33 4t-25 8l31 614q1 19 0.5 32.5t-2 22.5
t-3.5 15.5t-4 13.5l93 12l-20 -336q28 29 51 47.5t42.5 29t36.5 14.5t33 4q25 0 42 -14.5t27 -38t14.5 -53.5t4.5 -60z" />
    <glyph glyph-name="c" unicode="c" horiz-adv-x="344" 
d="M315 384q-31 25 -74 25q-31 0 -54 -21.5t-38 -56t-22 -77t-7 -83.5q0 -59 17 -86t53 -27q26 0 52.5 17.5t43.5 37.5l22 -55q-23 -26 -60.5 -46.5t-83.5 -20.5q-60 0 -91 48t-31 125q0 55 11.5 109.5t36.5 98.5t64.5 71.5t95.5 27.5q25 0 46.5 -7.5t35.5 -15.5z" />
    <glyph glyph-name="d" unicode="d" horiz-adv-x="447" 
d="M292 406q-39 0 -70.5 -19t-53.5 -51.5t-34 -75.5t-12 -91q0 -19 3 -38.5t8.5 -35t13.5 -25.5t17 -10q11 0 32.5 12t43 27t39 28.5t20.5 16.5l13 262h-20zM372 84q0 -4 -0.5 -13.5t-0.5 -21t1 -24.5t4 -25l-84 -11l5 97q-28 -29 -51 -48t-43 -29.5t-39 -14.5t-38 -4
q-23 0 -38.5 16.5t-25.5 42t-14 54.5t-4 55q0 67 19 122.5t54.5 96.5t86 65t113.5 29l7 144q1 16 0 34q-1 15 -2.5 32t-5.5 32h88z" />
    <glyph glyph-name="e" unicode="e" horiz-adv-x="383" 
d="M268 371q0 22 -9.5 33t-32.5 11q-18 0 -34.5 -15t-29.5 -39t-22.5 -54.5t-13.5 -60.5l56 23q42 17 64 44t22 58zM345 386q0 -61 -38.5 -101t-105.5 -66l-80 -31q-1 -10 -1 -16.5v-9.5q0 -59 16.5 -83t48.5 -24q16 0 33.5 5t34.5 13.5t32 18.5t26 19l19 -54
q-41 -35 -81.5 -50.5t-84.5 -15.5q-56 0 -89 41t-33 122q0 28 4 62.5t13 69.5t24 68.5t37 59.5t51.5 41.5t68.5 15.5q51 0 78 -25t27 -60z" />
    <glyph glyph-name="f" unicode="f" horiz-adv-x="287" 
d="M376 642q-12 2 -34.5 6t-47.5 4q-46 0 -78.5 -31t-35.5 -102l-3 -78h113l-10 -61h-106l-30 -594h-77l32 594h-91l10 61h81l4 66q6 106 59.5 158t144.5 52q11 0 25 -0.5t28 -2t26 -3t19 -3.5z" />
    <glyph glyph-name="g" unicode="g" horiz-adv-x="456" 
d="M290 405q-39 0 -70.5 -19t-53.5 -51.5t-34 -75.5t-12 -91q0 -19 3 -38.5t8.5 -35t13.5 -25.5t17 -10q11 0 32.5 12t43 27t39 28.5t20.5 16.5l13 262h-20zM402 469q-11 -45 -15.5 -75t-5.5 -66l-9 -327q-1 -46 -14.5 -86t-41 -69t-69 -46t-99.5 -17q-44 0 -77.5 10
t-56 25.5t-34 34.5t-11.5 37q0 16 7 29.5t18 24t24.5 17.5t27.5 12l25 -26l-30 -54q26 -32 60.5 -43t63.5 -11q26 0 48 10t38.5 27.5t26 41.5t11.5 52l7 116q-28 -29 -50.5 -47.5t-43 -29.5t-39 -15.5t-37.5 -4.5q-25 0 -41.5 17.5t-26 43t-13 54.5t-3.5 53q0 72 21.5 130
t61.5 99t96.5 63.5t126.5 22.5q12 0 26 -0.5t28 -2.5z" />
    <glyph glyph-name="h" unicode="h" horiz-adv-x="462" 
d="M380 84q-1 -15 0 -40t8 -44h-87q2 54 5 110t5 102q3 54 5 105q2 35 -1.5 55t-22.5 20q-14 0 -29.5 -6.5t-41.5 -28.5l-61 -51l-16 -306h-76l31 615q1 21 0 49.5t-6 48.5h86l-17 -350q24 26 44.5 46t39 33.5t37 20t39.5 6.5q40 0 57 -24.5t15 -61.5z" />
    <glyph glyph-name="i" unicode="i" horiz-adv-x="236" 
d="M148 84q-2 -24 0 -45.5t4 -38.5h-84l19 371q1 17 0.5 45t-6.5 53h87zM191 657q0 -20 -15.5 -36.5t-35.5 -16.5t-35.5 16.5t-15.5 36.5t15.5 37t35.5 17t35.5 -17t15.5 -37z" />
    <glyph glyph-name="j" unicode="j" horiz-adv-x="231" 
d="M144 3q-2 -36 -12 -75t-31.5 -71t-57 -53t-89.5 -21q-19 0 -42.5 3t-34.5 6l-20 76q7 -3 20 -6t27.5 -6t29.5 -4.5t28 -1.5q51 0 77 42.5t29 110.5l18 366q1 23 -1 53.5t-5 46.5h87zM187 657q0 -20 -15.5 -36.5t-35.5 -16.5t-35.5 16.5t-15.5 36.5t15.5 37t35.5 17
t35.5 -17t15.5 -37z" />
    <glyph glyph-name="k" unicode="k" horiz-adv-x="434" 
d="M147 84q-2 -23 -1 -43.5t3 -40.5h-81l31 615q1 20 0.5 49t-7.5 49h90zM256 264l157 -264l-87 -10l-158 273l19 5l163 202h84z" />
    <glyph glyph-name="l" unicode="l" horiz-adv-x="237" 
d="M147 84q-2 -23 -1 -43.5t3 -40.5h-81l31 615q1 20 0.5 49t-7.5 49h90z" />
    <glyph glyph-name="m" unicode="m" horiz-adv-x="689" 
d="M607 84q0 -4 -0.5 -14t0.5 -22.5t3 -25t5 -22.5h-87l13 290q1 30 2 49.5t-1 31t-7 16t-14 4.5q-14 0 -30.5 -7.5t-43.5 -28.5l-61 -47l-13 -308h-73l12 276q1 34 1.5 56.5t-1.5 35.5t-6.5 18t-11.5 5q-14 0 -31 -7t-43 -29l-61 -50l-16 -305h-75l19 371v22t-1 26.5
t-2.5 26.5t-3.5 23h85l-4 -105q24 26 44.5 46t39 33t37 19.5t39.5 6.5q40 0 55 -24.5t13 -61.5l-1 -19q24 26 44.5 46t39 33t37 19.5t39.5 6.5q40 0 57.5 -24.5t15.5 -61.5z" />
    <glyph glyph-name="n" unicode="n" horiz-adv-x="462" 
d="M380 84q-1 -14 0.5 -37.5t7.5 -46.5h-87l14 327q3 64 -20 64q-14 0 -31 -7t-43 -29l-61 -50l-16 -305h-76l19 371v22.5t-0.5 27.5t-2.5 27t-5 21h87l-4 -105q24 26 44.5 46t39 33t37 19.5t39.5 6.5q40 0 57 -24.5t15 -61.5z" />
    <glyph glyph-name="o" unicode="o" horiz-adv-x="440" 
d="M318 279q0 31 -4 56.5t-14 44t-28 28.5t-45 10q-29 0 -48.5 -27.5t-32.5 -65.5t-18.5 -77t-5.5 -62q0 -72 22.5 -103t62.5 -31q21 0 37.5 12.5t29 32.5t21 45.5t13.5 50.5t7.5 48t2.5 38zM398 295q0 -51 -10.5 -104.5t-35.5 -97t-66 -71t-102 -27.5q-27 0 -53 9t-45.5 30
t-31.5 55t-12 84q0 51 10 104.5t35 97.5t66.5 72t104.5 28q61 0 100.5 -43.5t39.5 -136.5z" />
    <glyph glyph-name="p" unicode="p" horiz-adv-x="457" 
d="M335 290q0 19 -3 38.5t-8.5 35.5t-13.5 26t-17 10q-16 0 -38 -12.5t-42.5 -27.5t-36 -28.5t-18.5 -16.5l-14 -260h21q39 0 70.5 19t53.5 51t34 74.5t12 90.5zM413 301q0 -67 -19.5 -123t-55.5 -97.5t-86.5 -65.5t-111.5 -26l-6 -104v-11t0.5 -26t2 -32t4.5 -30h-87
l31 589q0 6 0.5 17.5t0 24t-2 25t-4.5 20.5l85 11l-4 -100q29 28 52 47t43 29.5t38.5 15t37.5 4.5q23 0 38.5 -16.5t25.5 -42t14 -55t4 -54.5z" />
    <glyph glyph-name="q" unicode="q" horiz-adv-x="458" 
d="M292 405q-39 0 -70.5 -19t-53.5 -51.5t-34 -75.5t-12 -91q0 -19 2.5 -38.5t8 -35t13 -25t18.5 -9.5t32.5 12.5t43 27.5t39 28.5t20.5 16.5l13 260h-20zM404 469q-9 -32 -13.5 -61.5t-6.5 -70.5l-20 -472q-1 -26 1 -49.5t7 -34.5l-88 -11l13 314q-28 -29 -50.5 -47
t-43 -28.5t-39 -14t-37.5 -3.5q-26 0 -42.5 19t-25.5 45.5t-12 54.5t-3 47q0 70 21.5 128.5t61.5 100.5t97 64.5t128 21.5q25 0 52 -3z" />
    <glyph glyph-name="r" unicode="r" horiz-adv-x="302" 
d="M286 362l-123 -26l-15 -252q-1 -16 -1 -40t3 -44h-84l24 371q1 9 1 22t-0.5 27t-2.5 27t-6 22h88l-5 -94l5 -4q13 19 24 36t22 31t22.5 22.5t25.5 9.5q18 0 34 -10z" />
    <glyph glyph-name="s" unicode="s" horiz-adv-x="333" 
d="M288 389q-22 9 -47 16t-46 7q-23 0 -40.5 -12.5t-17.5 -40.5q0 -22 9.5 -37.5t28.5 -34.5l55 -53q9 -9 19.5 -21.5t19.5 -28.5t14.5 -34.5t5.5 -40.5q0 -50 -36 -83.5t-101 -33.5q-31 0 -60.5 4.5t-67.5 19.5l15 70q28 -19 59 -29t51 -10q29 0 45.5 13.5t16.5 38.5
q0 10 -1 19t-5.5 18.5t-13.5 21t-25 26.5l-52 50q-23 23 -38.5 50.5t-15.5 63.5q0 54 37 87.5t104 33.5q23 0 52.5 -4t51.5 -9z" />
    <glyph glyph-name="t" unicode="t" horiz-adv-x="314" 
d="M288 382h-112l-17 -259q0 -8 -0.5 -19.5t1.5 -21.5t7.5 -17t16.5 -7q23 0 45 11t37 22l15 -54q-16 -10 -29.5 -18t-27.5 -13.5t-29.5 -8.5t-35.5 -3q-27 0 -42.5 11t-23.5 27t-9.5 34.5t-0.5 34.5l18 281h-83l10 58h74v69v39l86 31l-11 -139h121z" />
    <glyph glyph-name="u" unicode="u" horiz-adv-x="464" 
d="M376 98v-22.5t0.5 -27t2.5 -26.5t5 -22l-88 -11l6 109q-24 -26 -44.5 -46t-39.5 -33t-37.5 -19.5t-39.5 -6.5q-40 0 -57 25t-15 61l14 306q0 9 -0.5 22t-2 25t-3 22t-3.5 15h88l-16 -345q-1 -24 4.5 -39t17.5 -15q14 0 31 7.5t43 28.5l62 50l14 298l78 27z" />
    <glyph glyph-name="v" unicode="v" horiz-adv-x="421" 
d="M389 399q0 -38 -5 -83t-16.5 -90t-29.5 -87t-44 -74.5t-61 -52t-80 -19.5q-39 0 -64.5 28t-22.5 91l13 266q2 26 0.5 50t-4.5 41h89l-16 -245q-2 -27 -3 -58t-1 -52q0 -9 1 -18.5t4.5 -17.5t9.5 -13t16 -5q39 0 65.5 30t42.5 74t23 95.5t7 94.5q0 35 -3.5 65t-6.5 50h78
q3 -23 5.5 -39.5t2.5 -30.5z" />
    <glyph glyph-name="w" unicode="w" horiz-adv-x="633" 
d="M601 399q0 -36 -5.5 -80t-17 -89t-29.5 -87.5t-43.5 -76t-58.5 -53.5t-75 -20q-35 0 -59 24.5t-22 83.5q-12 -18 -28 -37t-35 -34.5t-41 -26t-47 -10.5q-35 0 -57 28t-19 91l12 242q1 33 1 57t-4 58h90l-17 -245q-2 -24 -2 -47.5t-2 -46.5q-1 -10 -1 -21.5t2.5 -22
t9 -17.5t20.5 -7q11 0 28 14t34.5 32t32.5 36t22 26q5 71 10.5 141.5t2.5 142.5l82 21l-18 -251q-2 -27 -3 -55t-1 -55q0 -8 1 -17t4.5 -17t9.5 -13.5t16 -5.5q36 0 61 31t40.5 76t22.5 96t7 90q0 35 -2 65t-5 50h78q3 -23 4 -39.5t1 -30.5z" />
    <glyph glyph-name="x" unicode="x" horiz-adv-x="379" 
d="M231 238l120 -238l-87 -12l-83 179l-125 -180l-51 41l144 206l-117 235l87 10l80 -174l121 173l54 -34z" />
    <glyph glyph-name="y" unicode="y" horiz-adv-x="456" 
d="M407 479q-1 -7 -3 -20t-3.5 -28l-3 -30t-2.5 -26l-21 -372q-2 -36 -14 -75t-38.5 -71t-68.5 -53t-103 -21q-21 0 -46.5 3t-39.5 6l-22 76q8 -3 22.5 -6t31.5 -5.5t34.5 -4t31.5 -1.5q35 0 59.5 12.5t41 33.5t25 48.5t11.5 57.5l8 93q-49 -52 -85 -77.5t-78 -25.5
q-40 0 -57 25t-15 61l14 306q0 11 -0.5 23.5t-1.5 24t-3 21t-4 15.5h88l-16 -346q-1 -24 4.5 -38.5t17.5 -14.5q14 0 30 7.5t43 27.5l66 48l12 296z" />
    <glyph glyph-name="z" unicode="z" horiz-adv-x="350" 
d="M119 71l1 -6h212l-21 -65h-281l-20 33l226 356l-4 5h-190l24 65h254l20 -36z" />
    <glyph glyph-name="braceleft" unicode="{" horiz-adv-x="369" 
d="M334 -248q-58 0 -97 9t-62 27t-32.5 45t-8.5 64l7 219q1 29 -5 49.5t-20.5 34t-39.5 20t-62 8.5v46q37 2 62 10t40 22.5t20.5 36.5t4.5 51l-7 199q-1 37 8.5 64t32.5 45t62 27t97 9h14v-51q-43 0 -70 -4t-42 -17.5t-20.5 -39.5t-5.5 -70v-174q0 -49 -13 -75.5t-51 -41.5
l-25 -10l28 -11q37 -14 49 -40.5t12 -75.5v-194q0 -44 5.5 -70t20.5 -39.5t42 -17.5t70 -4v-51h-14z" />
    <glyph glyph-name="bar" unicode="|" horiz-adv-x="369" 
d="M144 -262v1060h76v-1060h-76z" />
    <glyph glyph-name="braceright" unicode="}" horiz-adv-x="369" 
d="M355 232q-38 -2 -62.5 -9.5t-39 -21.5t-20.5 -35t-5 -50l7 -219q1 -37 -8.5 -64t-32.5 -45t-62 -27t-97 -9h-14v51q43 0 70 4t42 17.5t20.5 39.5t5.5 70v194q0 49 12 75.5t49 40.5l28 11l-25 10q-38 15 -51 41.5t-13 75.5v174q0 44 -5.5 70t-20.5 39.5t-42 17.5t-70 4v51
h14q58 0 97 -9t62 -27t32.5 -45t8.5 -64l-7 -199q-1 -29 4.5 -50t20.5 -35t39.5 -21.5t62.5 -9.5v-46z" />
    <glyph glyph-name="asciitilde" unicode="~" horiz-adv-x="641" 
d="M443 694l-38 1l-89 54l-84 -73l-25 27l106 101l28 -1l94 -58l84 83l26 -25z" />
    <glyph glyph-name="exclamdown" unicode="&#xa1;" horiz-adv-x="263" 
d="M68 -2l24 457h63v-457h-87zM192 588q0 -24 -17 -40.5t-41 -16.5t-40.5 16.5t-16.5 40.5t16.5 41t40.5 17t41 -17t17 -41z" />
    <glyph glyph-name="cent" unicode="&#xa2;" 
d="M278 444q-32 -5 -62 -18t-53.5 -38t-38 -64t-14.5 -96q0 -38 11.5 -67.5t31.5 -50.5t47 -33t58 -16zM449 412q-9 5 -24 11t-32.5 11.5t-36 9t-35.5 3.5h-1l-20 -387q29 2 54 10t51 22q8 5 15 9t16 9l-4 -79q-17 -9 -53.5 -20.5t-81.5 -16.5l-9 -168h-42l9 167
q-41 1 -81 14t-71.5 40.5t-52 70t-21.5 103.5q-2 55 14 105t48.5 89t80.5 64.5t110 32.5l7 133h42l-7 -131h3q37 0 73.5 -9t62.5 -20z" />
    <glyph glyph-name="sterling" unicode="&#xa3;" 
d="M451 559l-103 53q-25 0 -47 -8t-38.5 -28.5t-27.5 -55.5t-14 -89l-3 -55h165l-39 -62h-129l-2 -34q-3 -46 -11 -80t-23 -59.5t-37.5 -42.5t-52.5 -28h348l-4 -70h-431l3 49q33 6 56 24.5t37 45.5t20.5 58.5t7.5 62.5l3 76h-84l29 60h60l3 49q4 62 24 106.5t50 73t65 42
t69 13.5q57 0 92 -13.5t55 -27.5z" />
    <glyph glyph-name="fraction" unicode="&#x2044;" horiz-adv-x="200" 
d="M-109 -128l-55 34l482 828l55 -42z" />
    <glyph glyph-name="fraction" unicode="&#x2215;" horiz-adv-x="200" 
d="M-109 -128l-55 34l482 828l55 -42z" />
    <glyph glyph-name="yen" unicode="&#xa5;" 
d="M309 331h123v-42h-145l-5 -17l-3 -79h140v-41h-142l-6 -152h-83l8 152h-135v41h137l5 83l-3 13h-139v42h124l-138 310h85l124 -278l168 278h78z" />
    <glyph glyph-name="florin" unicode="&#x192;" 
d="M488 621l-93 43h-18q-17 0 -35 -7.5t-33.5 -24.5t-26 -44.5t-12.5 -67.5l-6 -115h154l-32 -61h-124l-18 -336q-3 -51 -15.5 -94t-38 -73.5t-64 -47.5t-92.5 -17q-36 0 -74 11.5t-63 25.5l46 76l96 -59h18q42 0 72 36t34 109l20 369h-113l26 61h90l4 82q5 110 59 170.5
t151 60.5q37 0 71 -8t57 -19z" />
    <glyph glyph-name="section" unicode="&#xa7;" horiz-adv-x="494" 
d="M389 -20q0 -34 -13.5 -62t-37.5 -48.5t-57 -31.5t-72 -11q-42 0 -85.5 13t-81.5 37l31 68l152 -63q40 1 62.5 26t22.5 57t-17.5 53t-61.5 45l-69 38q-34 19 -55 36t-32 34.5t-15 35t-4 37.5t7.5 38t19 33t25 27t24.5 20l43 -31q-18 -11 -31.5 -32t-13.5 -43q0 -28 19 -50
t67 -48l55 -30q32 -17 54.5 -33.5t36.5 -34t20.5 -37t6.5 -43.5zM415 541l-152 63q-38 -3 -61.5 -27t-23.5 -56t20.5 -53t64.5 -45l69 -38q34 -19 54.5 -36t32 -34.5t15 -35t3.5 -37.5t-7.5 -38t-19 -33t-24.5 -27t-24 -20l-43 31q18 11 31.5 32t13.5 43q0 28 -19 50t-67 48
l-55 30q-64 34 -94 67t-30 81q0 34 13.5 62t37.5 48t57 31.5t72 11.5q42 0 85.5 -13t81.5 -37z" />
    <glyph glyph-name="currency" unicode="&#xa4;" horiz-adv-x="503" 
d="M447 416q-8 4 -22.5 10t-31.5 10.5t-36 8t-36 3.5q-29 0 -58.5 -5.5t-56 -19t-48.5 -36.5t-35 -59h189v-42h-200q-2 -14 -3 -28t-1 -30v-16h181v-41h-173q17 -58 63.5 -85.5t106.5 -27.5q55 0 88 15.5t59 32.5l-3 -76q-10 -5 -27 -11.5t-38.5 -12t-47.5 -9.5t-53 -4
q-38 0 -74.5 9.5t-68 31t-54 55.5t-31.5 82h-85v41h80v8q0 17 1 33.5t4 32.5h-75v42h85q13 41 38 75t60.5 59t81 38.5t101.5 13.5q37 0 73.5 -9t59.5 -20z" />
    <glyph glyph-name="quotesingle" unicode="'" horiz-adv-x="240" 
d="M75 387l-36 16l69 248l83 -28z" />
    <glyph glyph-name="quotedblleft" unicode="&#x201c;" horiz-adv-x="371" 
d="M191 640q-15 -9 -29 -20t-25.5 -25t-18 -32t-6.5 -41t12 -39t31 -22q-5 -27 -21.5 -43t-38.5 -16q-32 0 -49 24.5t-17 55.5q0 25 9 50.5t24 48t34.5 40.5t40.5 28zM371 640q-15 -9 -29 -20t-25.5 -25t-18 -32t-6.5 -41t12 -39t31 -22q-5 -27 -21.5 -43t-38.5 -16
q-32 0 -49 24.5t-17 55.5q0 25 9 50.5t24 48t34.5 40.5t40.5 28z" />
    <glyph glyph-name="guillemotleft" unicode="&#xab;" horiz-adv-x="389" 
d="M102 227l36 -145h-70l-48 148l105 183h74zM272 227l36 -145h-70l-48 148l105 183h74z" />
    <glyph glyph-name="guilsinglleft" unicode="&#x2039;" horiz-adv-x="219" 
d="M102 227l36 -145h-70l-48 148l105 183h74z" />
    <glyph glyph-name="guilsinglright" unicode="&#x203a;" horiz-adv-x="219" 
d="M95 82h-75l97 186l-36 145h70l48 -148z" />
    <glyph glyph-name="endash" unicode="&#x2013;" horiz-adv-x="498" 
d="M20 228v62h457v-62h-457z" />
    <glyph glyph-name="dagger" unicode="&#x2020;" horiz-adv-x="497" 
d="M473 466l-188 8l-21 -542l-46 -43l-41 43l36 543l-184 -9l10 72l177 -9l11 163h67l-6 -163l195 9z" />
    <glyph glyph-name="daggerdbl" unicode="&#x2021;" horiz-adv-x="497" 
d="M426 -71l-174 9l-14 -144h-61l3 143l-174 -8l10 68l165 -8l3 195l48 41l44 -41l-19 -196l179 9zM471 489l-182 8l-3 -198l-48 -41l-44 41l18 198l-181 -8l10 68l176 -9l13 144h61l-2 -144l192 9z" />
    <glyph glyph-name="periodcentered" unicode="&#xb7;" horiz-adv-x="269" 
d="M200 280q0 -28 -19.5 -47t-48.5 -19q-26 0 -44.5 19t-18.5 46t19.5 46.5t48.5 19.5q26 0 44.5 -19t18.5 -46z" />
    <glyph glyph-name="periodcentered" unicode="&#x2219;" horiz-adv-x="269" 
d="M200 280q0 -28 -19.5 -47t-48.5 -19q-26 0 -44.5 19t-18.5 46t19.5 46.5t48.5 19.5q26 0 44.5 -19t18.5 -46z" />
    <glyph glyph-name="paragraph" unicode="&#xb6;" horiz-adv-x="569" 
d="M560 575h-97l-30 -505q-8 -123 -58.5 -183.5t-156.5 -60.5q-28 0 -55.5 4t-63.5 16l30 72l129 -31q26 6 43.5 26.5t28.5 48t16.5 56.5t6.5 52l30 570h198zM296 255h-11q-55 0 -101 15.5t-79.5 44.5t-52 71t-18.5 95q0 36 14 67.5t38.5 54.5t58 36t72.5 13q18 0 41 -3
t52 -8z" />
    <glyph glyph-name="bullet" unicode="&#x2022;" horiz-adv-x="441" 
d="M324 314q0 -22 -8 -41.5t-22 -34t-33 -23t-40 -8.5t-40.5 8.5t-33.5 23.5t-22 35t-8 43q0 20 8.5 38t23 31t33 20.5t39.5 7.5t40 -8t33 -21.5t22 -31.5t8 -39z" />
    <glyph glyph-name="quotesinglbase" unicode="&#x201a;" horiz-adv-x="195" 
d="M153 26q0 -25 -9 -50.5t-23.5 -48t-34 -40.5t-40.5 -28l-54 9q15 9 29 20t25.5 25.5t18 32.5t6.5 41t-12 38.5t-31 21.5q5 28 21.5 43.5t37.5 15.5q33 0 49.5 -24.5t16.5 -55.5z" />
    <glyph glyph-name="quotedblbase" unicode="&#x201e;" horiz-adv-x="375" 
d="M173 26q0 -25 -9 -50.5t-24 -48t-34.5 -40.5t-40.5 -28l-53 9q15 9 29 20t25 25.5t18 32.5t7 41t-12 38.5t-32 21.5q6 28 22.5 43.5t37.5 15.5q33 0 49.5 -24.5t16.5 -55.5zM353 26q0 -25 -9 -50.5t-24 -48t-34.5 -40.5t-40.5 -28l-53 9q15 9 29 20t25 25.5t18 32.5t7 41
t-12 38.5t-32 21.5q6 28 22.5 43.5t37.5 15.5q33 0 49.5 -24.5t16.5 -55.5z" />
    <glyph glyph-name="quotedblright" unicode="&#x201d;" horiz-adv-x="371" 
d="M195 569q0 -25 -9 -50.5t-24 -48t-34.5 -40.5t-40.5 -28l-53 9q15 9 29 20t25 25.5t18 32.5t7 41t-12 38.5t-32 21.5q6 28 22.5 43.5t37.5 15.5q33 0 49.5 -24.5t16.5 -55.5zM375 569q0 -25 -9 -50.5t-24 -48t-34.5 -40.5t-40.5 -28l-53 9q15 9 29 20t25 25.5t18 32.5
t7 41t-12 38.5t-32 21.5q6 28 22.5 43.5t37.5 15.5q33 0 49.5 -24.5t16.5 -55.5z" />
    <glyph glyph-name="guillemotright" unicode="&#xbb;" horiz-adv-x="389" 
d="M95 82h-75l97 186l-36 145h70l48 -148zM265 82h-75l97 186l-36 145h70l48 -148z" />
    <glyph glyph-name="ellipsis" unicode="&#x2026;" horiz-adv-x="807" 
d="M225 51q0 -24 -17 -41t-41 -17q-23 0 -40 17t-17 41t17 41t40 17q24 0 41 -17t17 -41zM465 51q0 -24 -17 -41t-41 -17q-23 0 -40 17t-17 41t17 41t40 17q24 0 41 -17t17 -41zM704 50q0 -24 -17 -41t-41 -17t-41 17t-17 41q0 23 17 40t41 17t41 -17t17 -40z" />
    <glyph glyph-name="perthousand" unicode="&#x2030;" horiz-adv-x="1179" 
d="M300 497q0 105 -85 105q-51 0 -81 -42.5t-30 -111.5q0 -105 86 -105q46 0 74 33t35 96q1 6 1 12.5v12.5zM369 494q0 -44 -13.5 -80t-38 -62t-59 -40.5t-75.5 -14.5q-70 0 -108.5 40t-38.5 112v12t1 11q9 82 58.5 129t125.5 47q71 0 109.5 -40t38.5 -114zM288 -21l-52 21
l276 662l53 -21zM700 190q0 105 -85 105q-51 0 -81 -42t-30 -112q0 -105 86 -105q46 0 74 33.5t35 96.5q1 6 1 12v12zM769 188q0 -44 -13.5 -80.5t-38.5 -62.5t-59 -40.5t-75 -14.5q-70 0 -109 40t-39 112q0 6 0.5 12t1.5 12q9 81 58 128.5t126 47.5q71 0 109.5 -40.5
t38.5 -113.5zM1079 187q0 105 -86 105q-50 0 -80.5 -42.5t-30.5 -111.5q0 -105 86 -105q46 0 74 33t35 96q1 6 1.5 12t0.5 13zM1147 184q0 -44 -13.5 -80t-38 -62.5t-58.5 -41t-75 -14.5q-70 0 -109 40.5t-39 112.5v11.5t1 11.5q9 82 58.5 129t126.5 47q70 0 108.5 -40
t38.5 -114z" />
    <glyph glyph-name="questiondown" unicode="&#xbf;" horiz-adv-x="341" 
d="M229 -7q-24 0 -58.5 13.5t-66 36.5t-54 54t-22.5 66q0 51 26.5 93t61.5 74q17 16 35 29t34 24q17 11 30 18.5t22 13.5l49 -50q-25 -10 -54.5 -26.5t-55 -39.5t-43 -52t-17.5 -65q0 -29 20.5 -52t49.5 -39.5t60.5 -26.5t54.5 -13zM312 550q0 -24 -16.5 -41t-40.5 -17
t-41 17t-17 41t17 41t41 17t40.5 -17t16.5 -41z" />
    <glyph glyph-name="grave" unicode="`" horiz-adv-x="450" 
d="M303 503l-180 192l62 48l148 -214z" />
    <glyph glyph-name="acute" unicode="&#xb4;" horiz-adv-x="450" 
d="M153 503l-30 26l148 214l62 -48z" />
    <glyph glyph-name="circumflex" unicode="&#x2c6;" horiz-adv-x="450" 
d="M369 547l-101 89l-170 -99l-20 29l206 160l114 -149z" />
    <glyph glyph-name="tilde" unicode="&#x2dc;" horiz-adv-x="641" 
d="M443 694l-38 1l-89 54l-84 -73l-25 27l106 101l28 -1l94 -58l84 83l26 -25z" />
    <glyph glyph-name="macron" unicode="&#xaf;" horiz-adv-x="450" 
d="M111 614v62h266v-62h-266z" />
    <glyph glyph-name="macron" unicode="&#x2c9;" horiz-adv-x="450" 
d="M111 614v62h266v-62h-266z" />
    <glyph glyph-name="breve" unicode="&#x2d8;" horiz-adv-x="450" 
d="M381 650q-18 -35 -51.5 -53t-69.5 -18q-35 0 -66.5 18t-54.5 50l-38 55l14 14l55 -45q35 -29 91 -29q27 0 50.5 6.5t38.5 22.5l50 51l14 -10z" />
    <glyph glyph-name="dotaccent" unicode="&#x2d9;" horiz-adv-x="450" 
d="M315 643q0 -17 -12 -29t-29 -12t-29.5 12t-12.5 29t12.5 29.5t29.5 12.5t29 -12.5t12 -29.5z" />
    <glyph glyph-name="dieresis" unicode="&#xa8;" horiz-adv-x="546" 
d="M267 668q0 -20 -13.5 -35.5t-32.5 -15.5t-32 15.5t-13 35.5q0 19 13 34.5t32 15.5t32.5 -15.5t13.5 -34.5zM425 668q0 -20 -13 -35.5t-32 -15.5q-20 0 -33 15.5t-13 35.5q0 19 13 34.5t33 15.5q19 0 32 -15.5t13 -34.5z" />
    <glyph glyph-name="ring" unicode="&#x2da;" horiz-adv-x="450" 
d="M288 608q0 24 -20.5 42.5t-44.5 18.5q-25 0 -44.5 -18.5t-19.5 -42.5q0 -25 19.5 -45.5t44.5 -20.5q12 0 23.5 5.5t21 15t15 21.5t5.5 24zM326 605q0 -21 -8.5 -39t-22.5 -31.5t-32.5 -21.5t-39.5 -8q-20 0 -38.5 8t-32.5 21.5t-22.5 31.5t-8.5 39t8.5 39t22.5 31.5
t32.5 21.5t38.5 8q21 0 39.5 -8t32.5 -21.5t22.5 -31.5t8.5 -39z" />
    <glyph glyph-name="cedilla" unicode="&#xb8;" horiz-adv-x="450" 
d="M234 -115q0 -39 -29 -63.5t-80 -24.5q-21 0 -41.5 2.5t-32.5 4.5l20 54q13 -3 24 -5t31 -2q10 0 20.5 1t19.5 5t14.5 12t5.5 21t-8.5 20.5t-21 11.5t-26.5 6t-24 3l28 83h22l-18 -57q16 -1 33 -5t31 -12.5t23 -21.5t9 -33z" />
    <glyph glyph-name="hungarumlaut" unicode="&#x2dd;" horiz-adv-x="450" 
d="M61 563l-14 14l134 134h48l7 -41zM231 563l-14 14l134 134h48l7 -41z" />
    <glyph glyph-name="ogonek" unicode="&#x2db;" horiz-adv-x="450" 
d="M183 -197q-12 -4 -19 -5t-18 -1q-49 0 -77 20.5t-28 55.5q0 20 11 36q2 3 6.5 9t12.5 14q5 6 9.5 10.5l9.5 9.5l66 58h31l-59 -69q-21 -25 -28.5 -38t-7.5 -27q0 -23 17.5 -35.5t49.5 -12.5h42z" />
    <glyph glyph-name="caron" unicode="&#x2c7;" horiz-adv-x="450" 
d="M220 548l-98 165l11 11l103 -86l170 99l14 -10z" />
    <glyph glyph-name="emdash" unicode="&#x2014;" horiz-adv-x="993" 
d="M0 228v62h993v-62h-993z" />
    <glyph glyph-name="AE" unicode="&#xc6;" horiz-adv-x="702" 
d="M167 247h158l17 320zM660 575h-236l-14 -216h218l-6 -66h-215l-12 -227h265l-7 -66h-341l10 189h-188l-104 -189h-77l361 641h353z" />
    <glyph glyph-name="ordfeminine" unicode="&#xaa;" horiz-adv-x="393" 
d="M249 600q-33 0 -59.5 -14t-45 -38t-28.5 -55.5t-10 -66.5q0 -14 2.5 -28t7.5 -25.5t11.5 -19t14.5 -7.5q9 0 26.5 9t36 20t33 21t17.5 12l11 192h-17zM343 647q-9 -33 -12 -52t-5 -45l-10 -186q-2 -29 0.5 -41t4.5 -21l-72 -8l5 71q-23 -21 -41.5 -35t-34.5 -21.5
t-32 -10.5t-35 -3q-20 0 -33.5 12t-21.5 30t-11.5 39.5t-3.5 41.5q0 51 17 93.5t50 73t81 47.5t110 17q10 0 21 -0.5t23 -1.5z" />
    <glyph glyph-name="Oslash" unicode="&#xd8;" horiz-adv-x="583" 
d="M306 581q-40 0 -74 -20t-58.5 -59.5t-38.5 -98.5t-14 -137q0 -83 25.5 -134.5t84.5 -66.5l79 516h-4zM462 381q0 78 -27.5 131t-90.5 66l-77 -519h15q36 0 69 19t57.5 58.5t39 100t14.5 144.5zM545 389q0 -94 -17.5 -167.5t-53.5 -124.5t-90 -78t-127 -27l-15 -99l-37 7
l15 94q-86 11 -134 77t-48 183q0 75 14 145.5t46.5 125t86.5 88t135 34.5l12 80l33 -7l-11 -75q87 -9 139 -73t52 -183z" />
    <glyph glyph-name="OE" unicode="&#x152;" horiz-adv-x="795" 
d="M432 523q-21 29 -49 43.5t-70 14.5q-41 0 -76 -20t-60.5 -59.5t-40 -98.5t-14.5 -137q0 -49 8 -87.5t27 -65.5t49 -41t75 -14q48 0 77 19.5t52 48.5zM753 575h-236l-14 -216h218l-6 -66h-215l-12 -227h265l-7 -66h-341l1 39q-38 -26 -72 -36.5t-80 -10.5
q-105 0 -160.5 67t-55.5 195q0 75 14 146t48 126t90.5 88t140.5 33q38 0 64.5 -9.5t41.5 -23.5l1 27h322z" />
    <glyph glyph-name="ordmasculine" unicode="&#xba;" horiz-adv-x="383" 
d="M280 503q0 23 -3 42.5t-11.5 33t-23 21t-37.5 7.5q-24 0 -40.5 -20.5t-27 -48.5t-15 -57t-4.5 -46q0 -53 18.5 -76t51.5 -23q27 0 44.5 20t28 47t15 55t4.5 45zM347 515q0 -38 -9 -77t-29.5 -71t-54.5 -52.5t-85 -20.5q-23 0 -44 6.5t-37 22t-26 40.5t-10 62t8.5 77
t29 72t55 53t86.5 21q51 0 83.5 -32t32.5 -101z" />
    <glyph glyph-name="ae" unicode="&#xe6;" horiz-adv-x="533" 
d="M226 73q-4 15 -5.5 33.5t-1.5 38.5q0 17 0.5 32t1.5 28l-49 -20q-37 -15 -58 -30.5t-21 -44.5q0 -33 16 -45t51 -12q9 0 29 6t37 14zM429 371q0 21 -12 33t-33 12q-19 0 -40.5 -11t-32.5 -22q-5 -35 -8.5 -68.5t-7.5 -69.5l61 30q43 21 58 43t15 53zM511 387
q0 -54 -32 -89.5t-95 -65.5l-93 -44q0 -5 -0.5 -12.5t-0.5 -12.5q0 -58 17.5 -84t49.5 -26q14 0 30 5.5t31.5 14t29.5 18t25 18.5l19 -51q-41 -35 -79 -50.5t-87 -15.5q-23 0 -46.5 12t-39.5 38q-20 -20 -48 -35t-70 -15q-27 0 -47 9t-33.5 24t-20.5 33.5t-7 37.5
q0 44 22 69t59 42q10 5 20.5 9t20.5 8l91 34l4 61q3 45 -8.5 69.5t-50.5 24.5q-25 0 -52 -11t-54 -29l-21 59q13 10 30 18t35 14t35.5 9t30.5 3q28 0 48.5 -3.5t34 -11t22 -19t13.5 -27.5q22 29 50.5 43.5t56.5 14.5q49 0 79.5 -19.5t30.5 -66.5z" />
    <glyph glyph-name="dotlessi" unicode="&#x131;" horiz-adv-x="236" 
d="M148 84q-2 -24 0 -45.5t4 -38.5h-84l19 371q1 17 0.5 45t-6.5 53h87z" />
    <glyph glyph-name="oslash" unicode="&#xf8;" horiz-adv-x="440" 
d="M228 418q-29 0 -49 -27.5t-33 -65.5t-18.5 -77t-5.5 -62q0 -59 15 -90t43 -40zM318 279q0 52 -12 88t-47 47l-48 -362q20 1 36 14.5t28 33.5t20 45t13.5 49.5t7.5 47t2 37.5zM398 295q0 -49 -9.5 -100t-32 -94t-60 -72t-92.5 -33l-14 -103l-30 7l12 95q-26 2 -49.5 12
t-41.5 31t-28.5 54t-10.5 81t9 99t31.5 94t59.5 72.5t93 35.5l12 93l31 -7l-11 -85q57 -3 94 -46.5t37 -133.5z" />
    <glyph glyph-name="oe" unicode="&#x153;" horiz-adv-x="612" 
d="M318 279q0 31 -4 56.5t-14 44t-28 28.5t-45 10q-29 0 -48.5 -27.5t-32.5 -65.5t-18.5 -77t-5.5 -62q0 -72 20.5 -103t60.5 -31q21 0 38 12.5t29.5 32.5t21.5 45.5t15 50.5t8.5 48t2.5 38zM518 371q0 22 -8.5 33.5t-29.5 11.5q-18 0 -34.5 -15t-29.5 -39t-21 -54.5
t-11 -61.5l58 29q35 18 55.5 41.5t20.5 54.5zM596 386q0 -54 -32 -90.5t-92 -64.5l-91 -43q-1 -10 -1 -16.5v-9.5q0 -59 21 -84.5t44 -25.5q14 0 30 5.5t31.5 14t29.5 18t25 18.5l19 -51q-41 -35 -79 -50.5t-87 -15.5q-31 0 -54 18.5t-33 53.5q-26 -33 -61.5 -50.5
t-83.5 -17.5q-69 0 -104.5 43t-35.5 137q0 51 10 104t34.5 96.5t65.5 71.5t104 28q38 0 68 -16.5t46 -58.5q20 32 50.5 51.5t73.5 19.5q45 0 73.5 -22.5t28.5 -62.5z" />
    <glyph glyph-name="germandbls" unicode="&#xdf;" horiz-adv-x="520" 
d="M483 582q0 -27 -8.5 -48t-21.5 -36.5t-28.5 -28t-29.5 -22.5q-23 -18 -40 -36t-17 -41t8 -39.5t28 -33.5l34 -31q31 -28 51.5 -59t20.5 -78q0 -61 -38.5 -99t-101.5 -38q-15 0 -26.5 1t-23 3t-24.5 6.5t-32 12.5l15 71q29 -18 48 -26.5t40 -8.5q34 0 50 19.5t16 49.5
q0 16 -10.5 40.5t-36.5 48.5l-46 43q-26 23 -37 48t-11 51q0 25 7.5 44t20 33.5t29 27t35.5 26.5q23 17 39 37t16 52q0 37 -23 60t-82 23q-22 0 -43.5 -9t-39 -30t-29 -54.5t-13.5 -82.5l-33 -692h-79l31 664q6 124 60 195.5t159 71.5q32 0 62 -7.5t53 -23.5t37 -41.5
t14 -62.5z" />
    <glyph glyph-name="Ydieresis" unicode="&#x178;" horiz-adv-x="410" 
d="M241 302l-9 -30l-11 -272h-83l15 276l-6 26l-150 339h85l124 -278l168 278h78zM194 734q0 -20 -13.5 -35.5t-32.5 -15.5t-32 15.5t-13 35.5q0 19 13 34.5t32 15.5t32.5 -15.5t13.5 -34.5zM362 734q0 -20 -13 -35.5t-32 -15.5q-20 0 -33 15.5t-13 35.5q0 19 13 34.5
t33 15.5q19 0 32 -15.5t13 -34.5z" />
    <glyph glyph-name="trademark" unicode="&#x2122;" horiz-adv-x="1102" 
d="M397 584h-135v-352h-74v352h-138v57h368zM896 229v303l-147 -185l-133 173v-289h-61v358l-46 52h97l162 -198l160 198h41v-412h-73z" />
    <glyph glyph-name="ydieresis" unicode="&#xff;" horiz-adv-x="456" 
d="M407 479q-1 -7 -3 -20t-3.5 -28l-3 -30t-2.5 -26l-21 -372q-2 -36 -14 -75t-38.5 -71t-68.5 -53t-103 -21q-21 0 -46.5 3t-39.5 6l-22 76q8 -3 22.5 -6t31.5 -5.5t34.5 -4t31.5 -1.5q35 0 59.5 12.5t41 33.5t25 48.5t11.5 57.5l8 93q-49 -52 -85 -77.5t-78 -25.5
q-40 0 -57 25t-15 61l14 306q0 11 -0.5 23.5t-1.5 24t-3 21t-4 15.5h88l-16 -346q-1 -24 4.5 -38.5t17.5 -14.5q14 0 30 7.5t43 27.5l66 48l12 296zM222 584q0 -20 -13 -35.5t-32 -15.5t-32.5 15.5t-13.5 35.5q0 19 13.5 34.5t32.5 15.5t32 -15.5t13 -34.5zM381 584
q0 -20 -13.5 -35.5t-32.5 -15.5t-32 15.5t-13 35.5q0 19 13 34.5t32 15.5t32.5 -15.5t13.5 -34.5z" />
    <glyph glyph-name="udieresis" unicode="&#xfc;" horiz-adv-x="464" 
d="M376 98v-22.5t0.5 -27t2.5 -26.5t5 -22l-88 -11l6 109q-24 -26 -44.5 -46t-39.5 -33t-37.5 -19.5t-39.5 -6.5q-40 0 -57 25t-15 61l14 306q0 9 -0.5 22t-2 25t-3 22t-3.5 15h88l-16 -345q-1 -24 4.5 -39t17.5 -15q14 0 31 7.5t43 28.5l62 50l14 298l78 27zM217 584
q0 -20 -13.5 -35.5t-32.5 -15.5t-32 15.5t-13 35.5q0 19 13 34.5t32 15.5t32.5 -15.5t13.5 -34.5zM375 584q0 -20 -13 -35.5t-32 -15.5q-20 0 -33 15.5t-13 35.5q0 19 13 34.5t33 15.5q19 0 32 -15.5t13 -34.5z" />
    <glyph glyph-name="ucircumflex" unicode="&#xfb;" horiz-adv-x="464" 
d="M376 98v-22.5t0.5 -27t2.5 -26.5t5 -22l-88 -11l6 109q-24 -26 -44.5 -46t-39.5 -33t-37.5 -19.5t-39.5 -6.5q-40 0 -57 25t-15 61l14 306q0 9 -0.5 22t-2 25t-3 22t-3.5 15h88l-16 -345q-1 -24 4.5 -39t17.5 -15q14 0 31 7.5t43 28.5l62 50l14 298l78 27zM379 547
l-101 89l-170 -99l-20 29l206 160l114 -149z" />
    <glyph glyph-name="uacute" unicode="&#xfa;" horiz-adv-x="464" 
d="M376 98v-22.5t0.5 -27t2.5 -26.5t5 -22l-88 -11l6 109q-24 -26 -44.5 -46t-39.5 -33t-37.5 -19.5t-39.5 -6.5q-40 0 -57 25t-15 61l14 306q0 9 -0.5 22t-2 25t-3 22t-3.5 15h88l-16 -345q-1 -24 4.5 -39t17.5 -15q14 0 31 7.5t43 28.5l62 50l14 298l78 27zM253 503
l-30 26l148 214l62 -48z" />
    <glyph glyph-name="ugrave" unicode="&#xf9;" horiz-adv-x="464" 
d="M382 98v-22.5t0.5 -27t2 -26.5t4.5 -22l-87 -11l6 109q-25 -26 -45.5 -46t-39 -33t-37 -19.5t-39.5 -6.5q-40 0 -57 25t-15 61l14 306q0 9 -0.5 22t-2 25t-3.5 22l-3 15h88l-16 -345q-1 -24 4.5 -39t17.5 -15q14 0 31 7.5t43 28.5l62 50l14 298l78 27zM249 503l-180 192
l62 48l148 -214z" />
    <glyph glyph-name="divide" unicode="&#xf7;" horiz-adv-x="560" 
d="M354 52q0 -27 -20 -46.5t-48 -19.5q-26 0 -44.5 19t-18.5 46q0 28 19.5 47t48.5 19q26 0 44.5 -19t18.5 -46zM406 208h-249l-124 -7l14 72l319 -3l171 3v-72zM354 411q0 -27 -20 -46.5t-48 -19.5q-26 0 -44.5 19t-18.5 46q0 28 19.5 47t48.5 19q26 0 44.5 -19t18.5 -46z
" />
    <glyph glyph-name="odieresis" unicode="&#xf6;" horiz-adv-x="440" 
d="M318 279q0 31 -4 56.5t-14 44t-28 28.5t-45 10q-29 0 -48.5 -27.5t-32.5 -65.5t-18.5 -77t-5.5 -62q0 -72 22.5 -103t62.5 -31q21 0 37.5 12.5t29 32.5t21 45.5t13.5 50.5t7.5 48t2.5 38zM398 295q0 -51 -10.5 -104.5t-35.5 -97t-66 -71t-102 -27.5q-27 0 -53 9t-45.5 30
t-31.5 55t-12 84q0 51 10 104.5t35 97.5t66.5 72t104.5 28q61 0 100.5 -43.5t39.5 -136.5zM238 584q0 -20 -13.5 -35.5t-32.5 -15.5t-32 15.5t-13 35.5q0 19 13 34.5t32 15.5t32.5 -15.5t13.5 -34.5zM396 584q0 -20 -13 -35.5t-32 -15.5q-20 0 -33 15.5t-13 35.5
q0 19 13 34.5t33 15.5q19 0 32 -15.5t13 -34.5z" />
    <glyph glyph-name="otilde" unicode="&#xf5;" horiz-adv-x="440" 
d="M318 279q0 31 -4 56.5t-14 44t-28 28.5t-45 10q-29 0 -48.5 -27.5t-32.5 -65.5t-18.5 -77t-5.5 -62q0 -72 22.5 -103t62.5 -31q21 0 37.5 12.5t29 32.5t21 45.5t13.5 50.5t7.5 48t2.5 38zM398 295q0 -51 -10.5 -104.5t-35.5 -97t-66 -71t-102 -27.5q-27 0 -53 9t-45.5 30
t-31.5 55t-12 84q0 51 10 104.5t35 97.5t66.5 72t104.5 28q61 0 100.5 -43.5t39.5 -136.5zM329 549l-38 1l-89 54l-84 -73l-25 27l105 101l28 -1l95 -58l84 83l26 -25z" />
    <glyph glyph-name="ocircumflex" unicode="&#xf4;" horiz-adv-x="440" 
d="M318 279q0 31 -4 56.5t-14 44t-28 28.5t-45 10q-29 0 -48.5 -27.5t-32.5 -65.5t-18.5 -77t-5.5 -62q0 -72 22.5 -103t62.5 -31q21 0 37.5 12.5t29 32.5t21 45.5t13.5 50.5t7.5 48t2.5 38zM398 295q0 -51 -10.5 -104.5t-35.5 -97t-66 -71t-102 -27.5q-27 0 -53 9t-45.5 30
t-31.5 55t-12 84q0 51 10 104.5t35 97.5t66.5 72t104.5 28q61 0 100.5 -43.5t39.5 -136.5zM385 547l-101 89l-170 -99l-20 29l206 160l114 -149z" />
    <glyph glyph-name="oacute" unicode="&#xf3;" horiz-adv-x="440" 
d="M318 279q0 31 -4 56.5t-14 44t-28 28.5t-45 10q-29 0 -48.5 -27.5t-32.5 -65.5t-18.5 -77t-5.5 -62q0 -72 22.5 -103t62.5 -31q21 0 37.5 12.5t29 32.5t21 45.5t13.5 50.5t7.5 48t2.5 38zM398 295q0 -51 -10.5 -104.5t-35.5 -97t-66 -71t-102 -27.5q-27 0 -53 9t-45.5 30
t-31.5 55t-12 84q0 51 10 104.5t35 97.5t66.5 72t104.5 28q61 0 100.5 -43.5t39.5 -136.5zM239 503l-30 26l148 214l62 -48z" />
    <glyph glyph-name="ograve" unicode="&#xf2;" horiz-adv-x="440" 
d="M318 279q0 31 -4 56.5t-14 44t-28 28.5t-45 10q-29 0 -48.5 -27.5t-32.5 -65.5t-18.5 -77t-5.5 -62q0 -72 22.5 -103t62.5 -31q21 0 37.5 12.5t29 32.5t21 45.5t13.5 50.5t7.5 48t2.5 38zM398 295q0 -51 -10.5 -104.5t-35.5 -97t-66 -71t-102 -27.5q-27 0 -53 9t-45.5 30
t-31.5 55t-12 84q0 51 10 104.5t35 97.5t66.5 72t104.5 28q61 0 100.5 -43.5t39.5 -136.5zM269 503l-180 192l62 48l148 -214z" />
    <glyph glyph-name="ntilde" unicode="&#xf1;" horiz-adv-x="462" 
d="M380 84q-1 -14 0.5 -37.5t7.5 -46.5h-87l14 327q3 64 -20 64q-14 0 -31 -7t-43 -29l-61 -50l-16 -305h-76l19 371v22.5t-0.5 27.5t-2.5 27t-5 21h87l-4 -105q24 26 44.5 46t39 33t37 19.5t39.5 6.5q40 0 57 -24.5t15 -61.5zM335 551l-38 2l-88 54l-85 -73l-24 27l105 101
l28 -1l95 -58l83 83l27 -26z" />
    <glyph glyph-name="idieresis" unicode="&#xef;" horiz-adv-x="236" 
d="M149 84q-2 -24 0 -45.5t4 -38.5h-84l19 371q1 17 0.5 45t-6.5 53h87zM94 584q0 -20 -13.5 -35.5t-32.5 -15.5t-32 15.5t-13 35.5q0 19 13 34.5t32 15.5t32.5 -15.5t13.5 -34.5zM252 584q0 -20 -13 -35.5t-32 -15.5q-20 0 -33 15.5t-13 35.5q0 19 13 34.5t33 15.5
q19 0 32 -15.5t13 -34.5z" />
    <glyph glyph-name="icircumflex" unicode="&#xee;" horiz-adv-x="236" 
d="M148 84q-2 -24 0 -45.5t4 -38.5h-84l19 371q1 17 0.5 45t-6.5 53h87zM249 547l-101 89l-170 -99l-20 29l206 160l114 -149z" />
    <glyph glyph-name="iacute" unicode="&#xed;" horiz-adv-x="236" 
d="M148 84q-2 -24 0 -45.5t4 -38.5h-84l19 371q1 17 0.5 45t-6.5 53h87zM113 503l-30 26l148 214l62 -48z" />
    <glyph glyph-name="igrave" unicode="&#xec;" horiz-adv-x="236" 
d="M149 84q-2 -24 0 -45.5t4 -38.5h-84l19 371q1 17 0.5 45t-6.5 53h87zM143 503l-180 192l62 48l148 -214z" />
    <glyph glyph-name="edieresis" unicode="&#xeb;" horiz-adv-x="383" 
d="M269 371q0 22 -9.5 33t-32.5 11q-18 0 -34.5 -15t-29.5 -39t-22.5 -54.5t-13.5 -60.5l56 23q42 17 64 44t22 58zM346 386q0 -61 -38.5 -101t-105.5 -66l-80 -31q-1 -10 -1 -16.5v-9.5q0 -59 16.5 -83t48.5 -24q16 0 33.5 5t34.5 13.5t32 18.5t26 19l19 -54
q-41 -35 -81.5 -50.5t-84.5 -15.5q-56 0 -89 41t-33 122q0 28 4 62.5t13 69.5t24 68.5t37 59.5t51.5 41.5t68.5 15.5q51 0 78 -25t27 -60zM214 584q0 -20 -13.5 -35.5t-32.5 -15.5t-32 15.5t-13 35.5q0 19 13 34.5t32 15.5t32.5 -15.5t13.5 -34.5zM372 584q0 -20 -13 -35.5
t-32 -15.5q-20 0 -33 15.5t-13 35.5q0 19 13 34.5t33 15.5q19 0 32 -15.5t13 -34.5z" />
    <glyph glyph-name="ecircumflex" unicode="&#xea;" horiz-adv-x="383" 
d="M269 371q0 22 -9.5 33t-32.5 11q-18 0 -34.5 -15t-29.5 -39t-22.5 -54.5t-13.5 -60.5l56 23q42 17 64 44t22 58zM346 386q0 -61 -38.5 -101t-105.5 -66l-80 -31q-1 -10 -1 -16.5v-9.5q0 -59 16.5 -83t48.5 -24q16 0 33.5 5t34.5 13.5t32 18.5t26 19l19 -54
q-41 -35 -81.5 -50.5t-84.5 -15.5q-56 0 -89 41t-33 122q0 28 4 62.5t13 69.5t24 68.5t37 59.5t51.5 41.5t68.5 15.5q51 0 78 -25t27 -60zM356 547l-101 89l-170 -99l-20 29l206 160l114 -149z" />
    <glyph glyph-name="eacute" unicode="&#xe9;" horiz-adv-x="383" 
d="M269 371q0 22 -9.5 33t-32.5 11q-18 0 -34.5 -15t-29.5 -39t-22.5 -54.5t-13.5 -60.5l56 23q42 17 64 44t22 58zM346 386q0 -61 -38.5 -101t-105.5 -66l-80 -31q-1 -10 -1 -16.5v-9.5q0 -59 16.5 -83t48.5 -24q16 0 33.5 5t34.5 13.5t32 18.5t26 19l19 -54
q-41 -35 -81.5 -50.5t-84.5 -15.5q-56 0 -89 41t-33 122q0 28 4 62.5t13 69.5t24 68.5t37 59.5t51.5 41.5t68.5 15.5q51 0 78 -25t27 -60zM230 503l-30 26l148 214l62 -48z" />
    <glyph glyph-name="egrave" unicode="&#xe8;" horiz-adv-x="383" 
d="M270 371q0 22 -9.5 33t-32.5 11q-18 0 -34.5 -15t-29.5 -39t-22.5 -54.5t-13.5 -60.5l56 23q42 17 64 44t22 58zM347 386q0 -61 -38.5 -101t-105.5 -66l-80 -31q-1 -10 -1 -16.5v-9.5q0 -59 16.5 -83t48.5 -24q16 0 33.5 5t34.5 13.5t32 18.5t26 19l19 -54
q-41 -35 -81.5 -50.5t-84.5 -15.5q-56 0 -89 41t-33 122q0 28 4 62.5t13 69.5t24 68.5t37 59.5t51.5 41.5t68.5 15.5q51 0 78 -25t27 -60zM251 503l-180 192l62 48l148 -214z" />
    <glyph glyph-name="ccedilla" unicode="&#xe7;" horiz-adv-x="344" 
d="M314 392q-18 8 -35 12.5t-38 4.5q-31 0 -54 -21.5t-38 -56t-22 -77t-7 -83.5q0 -59 17 -86.5t53 -26.5q10 0 23 5t26.5 13t26 17.5t20.5 19.5l22 -55q-21 -23 -55.5 -42.5t-77.5 -23.5l-11 -35q16 -1 33 -5t31 -12.5t23 -21.5t9 -33q0 -39 -29 -63.5t-80 -24.5
q-21 0 -41.5 2.5t-32.5 4.5l20 54q13 -3 24 -5t31 -2q10 0 20.5 1t19.5 5t14.5 12t5.5 21t-8.5 20.5t-21 11.5t-26.5 6t-24 3l20 60q-51 3 -80.5 50.5t-29.5 122.5q0 55 11 110t35.5 98.5t64.5 71t97 27.5q25 0 46.5 -4t35.5 -9z" />
    <glyph glyph-name="aring" unicode="&#xe5;" horiz-adv-x="458" 
d="M292 405q-39 0 -70.5 -19t-53.5 -51.5t-34 -75.5t-12 -90q0 -19 3 -38.5t8.5 -35.5t13.5 -26t17 -10q11 0 32.5 12t43 27.5t39 29t20.5 16.5l13 261h-20zM404 469q-5 -23 -8.5 -39.5t-6 -31t-3.5 -29t-2 -32.5l-12 -253q-2 -38 0.5 -55t5.5 -29l-86 -11l6 96
q-28 -29 -49.5 -47t-41 -29t-39 -15t-41.5 -4q-24 0 -40 16t-25.5 40.5t-13.5 54.5t-4 57q0 69 20 127t59 99.5t96.5 64.5t132.5 23q25 0 52 -3zM324 615q0 17 -12 29t-29 12t-29 -12t-12 -29t12 -29t29 -12t29 12t12 29zM366 615q0 -35 -24 -59t-59 -24t-59 24t-24 59
t24 59t59 24t59 -24t24 -59z" />
    <glyph glyph-name="adieresis" unicode="&#xe4;" horiz-adv-x="458" 
d="M292 405q-39 0 -70.5 -19t-53.5 -51.5t-34 -75.5t-12 -90q0 -19 3 -38.5t8.5 -35.5t13.5 -26t17 -10q11 0 32.5 12t43 27.5t39 29t20.5 16.5l13 261h-20zM404 469q-5 -23 -8.5 -39.5t-6 -31t-3.5 -29t-2 -32.5l-12 -253q-2 -38 0.5 -55t5.5 -29l-86 -11l6 96
q-28 -29 -49.5 -47t-41 -29t-39 -15t-41.5 -4q-24 0 -40 16t-25.5 40.5t-13.5 54.5t-4 57q0 69 20 127t59 99.5t96.5 64.5t132.5 23q25 0 52 -3zM265 584q0 -20 -13.5 -35.5t-32.5 -15.5t-32 15.5t-13 35.5q0 19 13 34.5t32 15.5t32.5 -15.5t13.5 -34.5zM423 584
q0 -20 -13 -35.5t-32 -15.5q-20 0 -33 15.5t-13 35.5q0 19 13 34.5t33 15.5q19 0 32 -15.5t13 -34.5z" />
    <glyph glyph-name="atilde" unicode="&#xe3;" horiz-adv-x="458" 
d="M292 405q-39 0 -70.5 -19t-53.5 -51.5t-34 -75.5t-12 -90q0 -19 3 -38.5t8.5 -35.5t13.5 -26t17 -10q11 0 32.5 12t43 27.5t39 29t20.5 16.5l13 261h-20zM404 469q-5 -23 -8.5 -39.5t-6 -31t-3.5 -29t-2 -32.5l-12 -253q-2 -38 0.5 -55t5.5 -29l-86 -11l6 96
q-28 -29 -49.5 -47t-41 -29t-39 -15t-41.5 -4q-24 0 -40 16t-25.5 40.5t-13.5 54.5t-4 57q0 69 20 127t59 99.5t96.5 64.5t132.5 23q25 0 52 -3zM353 549l-38 1l-89 54l-84 -73l-25 27l106 101l28 -1l94 -58l84 83l26 -26z" />
    <glyph glyph-name="acircumflex" unicode="&#xe2;" horiz-adv-x="458" 
d="M292 405q-39 0 -70.5 -19t-53.5 -51.5t-34 -75.5t-12 -90q0 -19 3 -38.5t8.5 -35.5t13.5 -26t17 -10q11 0 32.5 12t43 27.5t39 29t20.5 16.5l13 261h-20zM404 469q-5 -23 -8.5 -39.5t-6 -31t-3.5 -29t-2 -32.5l-12 -253q-2 -38 0.5 -55t5.5 -29l-86 -11l6 96
q-28 -29 -49.5 -47t-41 -29t-39 -15t-41.5 -4q-24 0 -40 16t-25.5 40.5t-13.5 54.5t-4 57q0 69 20 127t59 99.5t96.5 64.5t132.5 23q25 0 52 -3zM417 545l-101 89l-170 -99l-20 29l206 160l114 -149z" />
    <glyph glyph-name="aacute" unicode="&#xe1;" horiz-adv-x="458" 
d="M292 405q-39 0 -70.5 -19t-53.5 -51.5t-34 -75.5t-12 -90q0 -19 3 -38.5t8.5 -35.5t13.5 -26t17 -10q11 0 32.5 12t43 27.5t39 29t20.5 16.5l13 261h-20zM404 469q-5 -23 -8.5 -39.5t-6 -31t-3.5 -29t-2 -32.5l-12 -253q-2 -38 0.5 -55t5.5 -29l-86 -11l6 96
q-28 -29 -49.5 -47t-41 -29t-39 -15t-41.5 -4q-24 0 -40 16t-25.5 40.5t-13.5 54.5t-4 57q0 69 20 127t59 99.5t96.5 64.5t132.5 23q25 0 52 -3zM261 503l-30 26l148 214l62 -48z" />
    <glyph glyph-name="agrave" unicode="&#xe0;" horiz-adv-x="458" 
d="M292 405q-39 0 -70.5 -19t-53.5 -51.5t-34 -75.5t-12 -90q0 -19 3 -38.5t8.5 -35.5t13.5 -26t17 -10q11 0 32.5 12t43 27.5t39 29t20.5 16.5l13 261h-20zM404 469q-5 -23 -8.5 -39.5t-6 -31t-3.5 -29t-2 -32.5l-12 -253q-2 -38 0.5 -55t5.5 -29l-86 -11l6 96
q-28 -29 -49.5 -47t-41 -29t-39 -15t-41.5 -4q-24 0 -40 16t-25.5 40.5t-13.5 54.5t-4 57q0 69 20 127t59 99.5t96.5 64.5t132.5 23q25 0 52 -3zM321 503l-180 192l62 48l148 -214z" />
    <glyph glyph-name="Udieresis" unicode="&#xdc;" horiz-adv-x="654" 
d="M544 210q-7 -117 -67 -169t-175 -52q-48 0 -88 11.5t-67.5 36t-42 62.5t-11.5 90l19 354l-5 98h89l-23 -447q-4 -71 37.5 -107t112.5 -36q45 0 74 14.5t46 39.5t24.5 59.5t9.5 75.5l14 303l-5 98h83zM326 735q0 -20 -13.5 -35.5t-32.5 -15.5t-32 15.5t-13 35.5
q0 19 13 34.5t32 15.5t32.5 -15.5t13.5 -34.5zM474 735q0 -20 -13 -35.5t-32 -15.5q-20 0 -33 15.5t-13 35.5q0 19 13 34.5t33 15.5q19 0 32 -15.5t13 -34.5z" />
    <glyph glyph-name="Ucircumflex" unicode="&#xdb;" horiz-adv-x="654" 
d="M544 210q-7 -117 -67 -169t-175 -52q-48 0 -88 11.5t-67.5 36t-42 62.5t-11.5 90l19 354l-5 98h89l-23 -447q-4 -71 37.5 -107t112.5 -36q45 0 74 14.5t46 39.5t24.5 59.5t9.5 75.5l14 303l-5 98h83zM468 684l-96 83l-159 -92l-19 29l190 142l113 -133z" />
    <glyph glyph-name="Uacute" unicode="&#xda;" horiz-adv-x="654" 
d="M544 210q-7 -118 -66.5 -169.5t-175.5 -51.5q-48 0 -88 11.5t-67.5 36t-42 62.5t-11.5 90l19 354l-5 98h89l-23 -447q-4 -71 37.5 -107t112.5 -36q45 0 74 14.5t46 39.5t24.5 59.5t9.5 75.5l14 303l-5 98h83zM329 685l-14 40l197 80l19 -60z" />
    <glyph glyph-name="Ugrave" unicode="&#xd9;" horiz-adv-x="654" 
d="M544 210q-7 -117 -67 -169t-175 -52q-48 0 -88 11.5t-67.5 36t-42 62.5t-11.5 90l19 354l-5 98h89l-23 -447q-4 -71 37.5 -107t112.5 -36q45 0 74 14.5t46 39.5t24.5 59.5t9.5 75.5l14 303l-5 98h83zM369 685l-211 60l28 60l198 -80z" />
    <glyph glyph-name="Odieresis" unicode="&#xd6;" horiz-adv-x="583" 
d="M462 381q0 45 -9 81.5t-27.5 63t-48 41t-71.5 14.5q-40 0 -74 -20t-58.5 -59.5t-38.5 -98.5t-14 -137q0 -98 36.5 -152.5t120.5 -54.5q40 0 73.5 21t58 62t38.5 101t14 138zM545 389q0 -94 -18.5 -168t-55 -125t-90.5 -77.5t-125 -26.5q-102 0 -160 67t-58 195
q0 75 15.5 146t49.5 126t88 88t132 33q50 0 91 -16t70 -48.5t45 -81t16 -112.5zM287 734q0 -20 -13 -35.5t-32 -15.5q-20 0 -33 15.5t-13 35.5q0 19 13 34.5t33 15.5q19 0 32 -15.5t13 -34.5zM455 734q0 -20 -13 -35.5t-32 -15.5t-32.5 15.5t-13.5 35.5q0 19 13.5 34.5
t32.5 15.5t32 -15.5t13 -34.5z" />
    <glyph glyph-name="Otilde" unicode="&#xd5;" horiz-adv-x="583" 
d="M462 381q0 45 -9 81.5t-27.5 63t-48 41t-71.5 14.5q-40 0 -74 -20t-58.5 -59.5t-38.5 -98.5t-14 -137q0 -98 36.5 -152.5t120.5 -54.5q40 0 73.5 21t58 62t38.5 101t14 138zM545 389q0 -94 -17.5 -168t-53.5 -125t-90.5 -77.5t-127.5 -26.5q-102 0 -160 67t-58 195
q0 75 15.5 146t49.5 126t88 88t132 33q50 0 91 -16t70 -48.5t45 -81t16 -112.5zM382 677l-38 5l-82 64l-92 -65l-21 30l115 90l28 -4l88 -68l92 74l23 -28z" />
    <glyph glyph-name="Ocircumflex" unicode="&#xd4;" horiz-adv-x="583" 
d="M462 381q0 45 -9 81.5t-27.5 63t-48 41t-71.5 14.5q-40 0 -74 -20t-58.5 -59.5t-38.5 -98.5t-14 -137q0 -98 36.5 -152.5t120.5 -54.5q40 0 73.5 21t58 62t38.5 101t14 138zM545 389q0 -94 -17.5 -168t-53.5 -125t-90.5 -77.5t-127.5 -26.5q-102 0 -160 67t-58 195
q0 75 15.5 146t49.5 126t88 88t132 33q50 0 91 -16t70 -48.5t45 -81t16 -112.5zM437 684l-96 83l-158 -92l-20 29l190 142l113 -133z" />
    <glyph glyph-name="Oacute" unicode="&#xd3;" horiz-adv-x="583" 
d="M462 381q0 45 -9 81.5t-27.5 63t-48 41t-71.5 14.5q-40 0 -74 -20t-58.5 -59.5t-38.5 -98.5t-14 -137q0 -98 36.5 -152.5t120.5 -54.5q40 0 73.5 21t58 62t38.5 101t14 138zM545 389q0 -94 -17.5 -168t-53.5 -125t-90.5 -77.5t-127.5 -26.5q-102 0 -160 67t-58 195
q0 75 15.5 146t49.5 126t88 88t132 33q50 0 91 -16t70 -48.5t45 -81t16 -112.5zM308 684l-15 40l198 80l18 -60z" />
    <glyph glyph-name="Ograve" unicode="&#xd2;" horiz-adv-x="583" 
d="M462 381q0 45 -9 81.5t-27.5 63t-48 41t-71.5 14.5q-40 0 -74 -20t-58.5 -59.5t-38.5 -98.5t-14 -137q0 -98 36.5 -152.5t120.5 -54.5q40 0 73.5 21t58 62t38.5 101t14 138zM545 389q0 -94 -17.5 -168t-53.5 -125t-90.5 -77.5t-127.5 -26.5q-102 0 -160 67t-58 195
q0 75 15.5 146t49.5 126t88 88t132 33q50 0 91 -16t70 -48.5t45 -81t16 -112.5zM355 685l-212 60l29 60l197 -80z" />
    <glyph glyph-name="Ntilde" unicode="&#xd1;" horiz-adv-x="645" 
d="M548 0h-66l-293 482l-24 -482h-71l32 584l-34 57h96l299 -493l24 493h72zM437 677l-38 5l-82 64l-92 -65l-22 30l116 90l27 -4l88 -68l92 74l24 -28z" />
    <glyph glyph-name="Idieresis" unicode="&#xcf;" horiz-adv-x="282" 
d="M163 0h-80l28 544l-5 97h90zM120 734q0 -20 -13 -35.5t-32 -15.5q-20 0 -33 15.5t-13 35.5q0 19 13 34.5t33 15.5q19 0 32 -15.5t13 -34.5zM288 734q0 -20 -13 -35.5t-32 -15.5t-32.5 15.5t-13.5 35.5q0 19 13.5 34.5t32.5 15.5t32 -15.5t13 -34.5z" />
    <glyph glyph-name="Icircumflex" unicode="&#xce;" horiz-adv-x="282" 
d="M164 0h-80l28 544l-5 97h90zM268 684l-96 83l-158 -92l-20 29l190 142l113 -133z" />
    <glyph glyph-name="Iacute" unicode="&#xcd;" horiz-adv-x="282" 
d="M164 0h-80l28 544l-5 97h90zM122 684l-14 40l197 80l19 -60z" />
    <glyph glyph-name="Igrave" unicode="&#xcc;" horiz-adv-x="282" 
d="M164 0h-80l28 544l-5 97h90zM189 684l-211 60l28 60l198 -80z" />
    <glyph glyph-name="Edieresis" unicode="&#xcb;" horiz-adv-x="473" 
d="M431 575h-238l-12 -216h218l-6 -66h-215l-11 -227h264l-7 -66h-340l27 543l-5 98h332zM250 736q0 -20 -13 -35.5t-32 -15.5q-20 0 -33 15.5t-13 35.5q0 19 13 34.5t33 15.5q19 0 32 -15.5t13 -34.5zM418 736q0 -20 -13 -35.5t-32 -15.5t-32.5 15.5t-13.5 35.5
q0 19 13.5 34.5t32.5 15.5t32 -15.5t13 -34.5z" />
    <glyph glyph-name="Ecircumflex" unicode="&#xca;" horiz-adv-x="473" 
d="M431 575h-238l-12 -216h218l-6 -66h-215l-11 -227h264l-7 -66h-340l27 543l-5 98h332zM398 684l-96 83l-159 -92l-19 29l190 142l113 -133z" />
    <glyph glyph-name="Eacute" unicode="&#xc9;" horiz-adv-x="473" 
d="M431 575h-238l-12 -216h218l-6 -66h-215l-11 -227h264l-7 -66h-340l27 543l-5 98h332zM202 684l-14 40l197 80l19 -60z" />
    <glyph glyph-name="Egrave" unicode="&#xc8;" horiz-adv-x="473" 
d="M431 575h-238l-12 -216h218l-6 -66h-215l-11 -227h264l-7 -66h-340l27 543l-5 98h332zM329 684l-211 60l28 60l198 -80z" />
    <glyph glyph-name="Ccedilla" unicode="&#xc7;" horiz-adv-x="481" 
d="M463 541q-19 13 -51 25.5t-77 12.5q-41 0 -79.5 -19.5t-69 -58t-49 -96t-18.5 -133.5q0 -57 12.5 -96.5t35.5 -64.5t57 -36t76 -11q49 0 83.5 18.5t66.5 44.5l-4 -86q-10 -7 -26 -15.5t-36 -15.5t-44.5 -12t-51.5 -5h-14.5t-13.5 1l-12 -37q16 -1 33 -5t31 -12.5
t23 -21.5t9 -33q0 -39 -29 -63.5t-80 -24.5q-21 0 -41.5 2.5t-32.5 4.5l20 54q13 -3 24 -5t31 -2q10 0 20.5 1t19.5 5t14.5 12t5.5 21t-8.5 20.5t-21 11.5t-26.5 6t-24 3l22 65q-205 26 -205 270q0 71 20 139.5t59 122.5t96.5 87t132.5 33q37 0 67 -5.5t69 -19.5z" />
    <glyph glyph-name="Aring" unicode="&#xc5;" horiz-adv-x="503" 
d="M267 537l-110 -290h172zM383 0l-41 189h-207l-73 -189h-77l243 588l13 46l77 25l152 -659h-87zM331 763q0 17 -12 29t-29 12t-29 -12t-12 -29t12 -29t29 -12t29 12t12 29zM373 763q0 -35 -24 -59t-59 -24t-59 24t-24 59t24 59t59 24t59 -24t24 -59z" />
    <glyph glyph-name="Adieresis" unicode="&#xc4;" horiz-adv-x="503" 
d="M267 537l-110 -290h172zM383 0l-41 189h-207l-73 -189h-77l243 588l13 46l77 25l152 -659h-87zM242 734q0 -20 -13.5 -35.5t-32.5 -15.5t-32 15.5t-13 35.5q0 19 13 34.5t32 15.5t32.5 -15.5t13.5 -34.5zM410 734q0 -20 -13 -35.5t-32 -15.5q-20 0 -33 15.5t-13 35.5
q0 19 13 34.5t33 15.5q19 0 32 -15.5t13 -34.5z" />
    <glyph glyph-name="Atilde" unicode="&#xc3;" horiz-adv-x="503" 
d="M267 537l-110 -290h172zM383 0l-41 189h-207l-73 -189h-77l243 588l13 46l77 25l152 -659h-87zM359 677l-38 5l-82 64l-92 -65l-22 30l116 90l27 -4l88 -68l92 74l24 -28z" />
    <glyph glyph-name="Acircumflex" unicode="&#xc2;" horiz-adv-x="503" 
d="M267 537l-110 -290h172zM383 0l-41 189h-207l-73 -189h-77l243 588l13 46l77 25l152 -659h-87zM400 684l-96 83l-159 -92l-19 29l190 142l113 -133z" />
    <glyph glyph-name="Aacute" unicode="&#xc1;" horiz-adv-x="503" 
d="M267 537l-110 -290h172zM383 0l-41 189h-207l-73 -189h-77l243 588l13 46l77 25l152 -659h-87zM234 685l-18 40l207 100l23 -70z" />
    <glyph glyph-name="Agrave" unicode="&#xc0;" horiz-adv-x="503" 
d="M267 537l-110 -290h172zM383 0l-41 189h-207l-73 -189h-77l243 588l13 46l77 25l152 -659h-87zM321 683l-211 70l22 70l208 -100z" />
    <glyph glyph-name="mu" unicode="&#xb5;" horiz-adv-x="463" 
d="M401 477q-3 -21 -5 -35.5t-3.5 -29t-3 -32t-2.5 -43.5l-13 -242l9 -96l-83 -9l7 82l-7 5q-5 -12 -15 -27t-23 -27.5t-28.5 -21.5t-31.5 -9q-20 0 -33.5 6t-24.5 24l-9 -236h-90q4 17 8.5 46.5t8 66t6 77.5t4.5 80l15 382l80 39l-15 -306q-2 -32 1.5 -53.5t10.5 -34
t18 -17.5t25 -5q23 0 40.5 9t29.5 20.5t18.5 22t7.5 12.5l13 246l-3 77z" />
    <glyph glyph-name="mu" unicode="&#x3bc;" horiz-adv-x="463" 
d="M401 477q-3 -21 -5 -35.5t-3.5 -29t-3 -32t-2.5 -43.5l-13 -242l9 -96l-83 -9l7 82l-7 5q-5 -12 -15 -27t-23 -27.5t-28.5 -21.5t-31.5 -9q-20 0 -33.5 6t-24.5 24l-9 -236h-90q4 17 8.5 46.5t8 66t6 77.5t4.5 80l15 382l80 39l-15 -306q-2 -32 1.5 -53.5t10.5 -34
t18 -17.5t25 -5q23 0 40.5 9t29.5 20.5t18.5 22t7.5 12.5l13 246l-3 77z" />
    <glyph glyph-name="plusminus" unicode="&#xb1;" horiz-adv-x="560" 
d="M406 -121h-249l-124 -7l14 72l319 -3l161 3v-72zM398 238h-87v-198l-69 -14l7 152v60h-100l-124 -7l14 69h210v179l69 24l-7 -85v-118h76l142 3v-74z" />
    <glyph glyph-name="degree" unicode="&#xb0;" horiz-adv-x="260" 
d="M204 548q0 31 -21 52t-52 21q-32 0 -52.5 -22t-20.5 -51q0 -32 21.5 -52.5t51.5 -20.5q32 0 52.5 20.5t20.5 52.5zM234 548q0 -21 -8 -40t-22 -33.5t-33 -22.5t-40 -8t-40 8t-33 22.5t-22 33.5t-8 40t8 40t22 33t33 22t40 8t40 -8t33 -22t22 -33t8 -40z" />
    <glyph glyph-name="registered" unicode="&#xae;" horiz-adv-x="700" 
d="M406 398q0 17 -7.5 27.5t-20 16.5t-29 8t-34.5 2h-20v-119l64 -5q13 8 30 25t17 45zM446 179l-98 120q-5 -1 -11 -1h-14q-4 0 -12.5 0.5t-15.5 1.5v-121h-55v296q5 1 16 3.5t25.5 5t31 4t32.5 1.5q25 0 47 -5.5t38.5 -17t26 -27.5t9.5 -37q0 -18 -7 -32.5t-17.5 -25
t-22.5 -17.5t-22 -10l127 -144zM631 321q0 58 -22.5 109.5t-61 90t-90 61t-109.5 22.5q-59 0 -110.5 -22.5t-90 -61t-61 -90t-22.5 -109.5q0 -59 22.5 -110.5t61 -90t90 -61t110.5 -22.5q58 0 109.5 22.5t90 61t61 90t22.5 110.5zM674 321q0 -68 -25.5 -127t-70 -103
t-104 -69.5t-126.5 -25.5t-126 25.5t-103.5 69.5t-70 103t-25.5 127q0 67 25.5 126.5t70 103t103.5 69t126 25.5t126.5 -25.5t104 -69t70 -103t25.5 -126.5z" />
    <glyph glyph-name="logicalnot" unicode="&#xac;" horiz-adv-x="560" 
d="M435 107l3 72l-2 75l-58 4h-229l-124 -7l14 69h328l142 3v-2l1 -225z" />
    <glyph glyph-name="copyright" unicode="&#xa9;" horiz-adv-x="700" 
d="M467 191q-14 -8 -42 -16t-59 -8q-41 0 -73 11.5t-55 32.5t-35 49.5t-12 62.5q0 36 13 66t36 51.5t55.5 33t70.5 11.5q31 0 59 -8.5t42 -16.5v-55q-7 5 -18.5 11t-25 11.5t-28.5 9t-30 3.5q-50 0 -81.5 -30t-31.5 -83q0 -24 8 -45t23 -37t36 -25t46 -9q30 0 57.5 11
t44.5 24v-55zM632 321q0 58 -22.5 109.5t-60.5 90t-89.5 61t-109.5 22.5q-59 0 -110.5 -22.5t-90 -61t-61 -90t-22.5 -109.5q0 -59 22.5 -110.5t61 -90t90 -61t110.5 -22.5q58 0 109.5 22.5t89.5 61t60.5 90t22.5 110.5zM675 321q0 -68 -25.5 -127.5t-70 -103.5
t-103.5 -69.5t-126 -25.5q-68 0 -127 25.5t-103.5 69.5t-70 103.5t-25.5 127.5q0 67 25.5 126t70 103t103.5 69.5t127 25.5q67 0 126 -25.5t103.5 -69.5t70 -103t25.5 -126z" />
    <glyph glyph-name="quotedbl" unicode="&#x22;" horiz-adv-x="407" 
d="M75 387l-36 16l69 248l83 -28zM235 387l-36 16l69 248l83 -28z" />
    <glyph glyph-name="exclam" unicode="!" horiz-adv-x="263" 
d="M185 51q0 -24 -17 -41t-41 -17q-23 0 -40 17t-17 41t17 41t40 17q24 0 41 -17t17 -41zM170 184h-63v457h87z" />
    <glyph glyph-name="Lslash" unicode="&#x141;" horiz-adv-x="421" 
d="M37 247l-31 44l96 67q1 14 2 29q1 13 1.5 29.5t1.5 33.5q2 40 5 93l-5 98h92l-6 -112q-2 -21 -3 -41.5t-2 -36.5q-1 -18 -2 -35l79 55l31 -44l-113 -79q-2 -21 -3 -44q-2 -20 -2.5 -45.5t-2.5 -51.5q-4 -62 -8 -141h235l-7 -66h-311l15 290z" />
    <glyph glyph-name="lslash" unicode="&#x142;" horiz-adv-x="237" 
d="M147 84q-2 -23 -1 -43.5t3 -40.5h-81l15 289l-52 -39l-32 41l87 66l13 258q1 20 0.5 49t-7.5 49h90l-16 -296l50 38l32 -41l-86 -65z" />
    <glyph glyph-name="zcaron" unicode="&#x17e;" horiz-adv-x="337" 
d="M190 507l-111 127l29 30l91 -78l131 87l20 -29zM106 71l2 -6h222l-22 -65h-290l-20 33l235 356l-4 5h-200l25 65h265l20 -36z" />
    <glyph glyph-name="Zcaron" unicode="&#x17d;" horiz-adv-x="456" 
d="M362 474l-249 -408h336v-66h-429l-24 26l99 146l245 403h-307l22 66h385l19 -27zM250 677l-111 127l29 30l91 -78l131 87l20 -29z" />
    <glyph glyph-name="scaron" unicode="&#x161;" horiz-adv-x="321" 
d="M282 389q-22 9 -47 17t-46 8q-23 0 -40.5 -13.5t-17.5 -41.5q0 -22 9.5 -37.5t28.5 -34.5l55 -53q9 -9 19.5 -21.5t19.5 -28.5t14.5 -34.5t5.5 -40.5q0 -50 -36 -83.5t-101 -33.5q-31 0 -60.5 4.5t-67.5 19.5l15 70q28 -19 59 -29t51 -10q29 0 45.5 13.5t16.5 38.5
q0 10 -1 19t-5.5 18.5t-13.5 21t-25 26.5l-52 50q-23 23 -38.5 50.5t-15.5 63.5q0 54 37 87.5t104 33.5q23 0 52.5 -4t51.5 -9zM177 501l-111 127l29 30l92 -78l131 86l20 -29z" />
    <glyph glyph-name="Scaron" unicode="&#x160;" horiz-adv-x="450" 
d="M390 540q-35 20 -70 32t-73 12q-57 0 -84.5 -26t-27.5 -64q0 -20 4.5 -35t13.5 -27t21 -22t27 -20l83 -56q30 -20 51.5 -38.5t35.5 -39t21 -43t7 -50.5q0 -43 -16 -75.5t-43.5 -54t-64 -32.5t-76.5 -11q-41 0 -87.5 10t-77.5 23l7 85q15 -11 35 -19.5t41.5 -15.5
t43 -10.5t40.5 -3.5q50 0 81 25.5t31 72.5q0 38 -23.5 65t-54.5 47l-80 53q-44 29 -73 69t-29 90q0 78 53 123t155 45q29 0 64 -6t83 -24zM250 677l-111 127l29 30l91 -78l131 87l20 -29z" />
    <glyph glyph-name="thorn" unicode="&#xfe;" horiz-adv-x="449" 
d="M335 290q0 19 -3 38.5t-8.5 35.5t-13.5 26t-17 10q-16 0 -38 -12.5t-42.5 -27.5t-36 -28.5t-18.5 -16.5l-14 -260h21q39 0 70.5 19t53.5 51t34 74.5t12 90.5zM413 301q0 -67 -19.5 -123t-55.5 -97.5t-86.5 -65.5t-111.5 -26l-6 -104v-11t0.5 -26t2 -32t4.5 -30h-87
l43 829l-6 99h85l-16 -341q29 28 52 47t43 29.5t38.5 15t37.5 4.5q23 0 38.5 -16.5t25.5 -42t14 -55t4 -54.5z" />
    <glyph glyph-name="yacute" unicode="&#xfd;" horiz-adv-x="467" 
d="M402 479q-1 -7 -3 -20t-3.5 -28l-3 -30t-2.5 -26l-22 -372q-2 -36 -14.5 -75t-38.5 -71t-67.5 -53t-102.5 -21q-22 0 -47 3t-39 6l-22 76q8 -3 22.5 -6t31 -5.5t34 -4t32.5 -1.5q35 0 59.5 12.5t40.5 33.5t24.5 48.5t11.5 57.5l8 93q-49 -52 -85 -77.5t-78 -25.5
q-39 0 -56.5 25t-15.5 61l14 306q1 22 -1.5 47.5t-7.5 36.5h88l-16 -346q-1 -24 4.5 -38.5t17.5 -14.5q14 0 30.5 7.5t43.5 27.5l65 48l12 296zM243 503l-30 26l148 214l62 -48z" />
    <glyph glyph-name="eth" unicode="&#xf0;" horiz-adv-x="428" 
d="M245 609l-22 -16q-10 -8 -22 -16.5t-25 -18.5q-31 -23 -69 -51l-24 34l136 101q-24 27 -53.5 44.5t-61.5 27.5l42 46q32 -11 65.5 -29t63.5 -47l94 69l25 -33q-25 -19 -45 -34t-32 -23q-8 -5 -14 -10q39 -49 64 -126.5t25 -195.5q0 -68 -10.5 -129.5t-35.5 -108.5
t-66 -74.5t-102 -27.5q-27 0 -53 9t-45.5 30t-31.5 55t-12 84q0 49 10.5 97.5t34 87.5t61 63t91.5 24q18 0 36.5 -3t35.5 -10q-8 59 -23 103.5t-37 77.5zM311 361q-14 10 -33.5 16.5t-46.5 6.5q-32 0 -54 -20.5t-35.5 -51.5t-19.5 -66t-6 -64q0 -72 22.5 -103t62.5 -31
q32 0 53.5 26t34 66t18 86.5t5.5 88.5v23.5t-1 22.5z" />
    <glyph glyph-name="Thorn" unicode="&#xde;" horiz-adv-x="497" 
d="M252 540q50 0 92 -9.5t72 -30.5t47 -54.5t17 -82.5q0 -54 -16 -94.5t-43.5 -68t-64.5 -41t-79 -13.5q-14 0 -28.5 2t-25.5 4l13 54h27q26 0 51 7t44 24t30.5 45.5t11.5 72.5q0 66 -42 93t-119 27h-51l-12 -238q-5 -105 -12 -237h-80l28 564l-5 77h90l-5 -101h60z" />
    <glyph glyph-name="Yacute" unicode="&#xdd;" horiz-adv-x="410" 
d="M241 302l-9 -30l-11 -272h-83l15 276l-6 26l-150 339h85l124 -278l168 278h78zM202 664l-14 40l187 100l19 -60z" />
    <glyph glyph-name="multiply" unicode="&#xd7;" horiz-adv-x="560" 
d="M441 356l-104 -105l53 -54l103 -98l-52 -52l-87 99l-61 61l-161 -161l-59 39l112 103l64 63l-71 71l-92 83l58 39l149 -149l147 148l66 -32z" />
    <glyph glyph-name="Eth" unicode="&#xd0;" horiz-adv-x="595" 
d="M8 302l10 61h84l9 180l-5 98h202q65 0 112 -23.5t77.5 -62.5t45 -91t14.5 -109q0 -72 -18.5 -136.5t-56 -113t-94.5 -77t-133 -28.5h-171l15 302h-91zM310 363l-10 -61h-120l-12 -236h89q62 0 103 26t66 67.5t35 94t10 105.5q0 44 -10 83.5t-32 69t-57.5 46.5t-86.5 17
h-91l-11 -212h127z" />
    <glyph glyph-name="brokenbar" unicode="&#xa6;" horiz-adv-x="369" 
d="M144 -303v423h76v-423h-76zM144 376v342h76v-342h-76z" />
    <glyph glyph-name="minus" unicode="&#x2212;" horiz-adv-x="560" 
d="M398 228h-249l-124 -7l14 69h348l142 3v-74z" />
    <glyph glyph-name="threesuperior" unicode="&#xb3;" horiz-adv-x="350" 
d="M289 574q0 -20 -9.5 -36t-23.5 -28.5t-30.5 -21.5t-30.5 -15q42 -3 61.5 -28.5t19.5 -54.5q0 -33 -12 -56t-33 -38t-50 -21.5t-64 -6.5q-17 0 -38 2.5t-37 7.5l20 46q15 -5 29.5 -7.5t27.5 -2.5q41 0 64.5 17t23.5 47q0 12 -3 22t-11.5 17t-24 11t-39.5 4h-29l10 47h42
q11 7 23 15.5t22 19t16.5 22.5t6.5 26q0 38 -56 38q-17 0 -33 -3t-29 -7l14 51q14 2 29.5 5t34.5 3q56 0 82.5 -19.5t26.5 -55.5z" />
    <glyph glyph-name="twosuperior" unicode="&#xb2;" horiz-adv-x="350" 
d="M233 278h-191l-5 26q20 17 49.5 42t56.5 54.5t46.5 62t19.5 65.5q0 30 -21 41t-53 11q-17 0 -34 -7.5t-26 -13.5l19 79q15 5 30.5 9t35.5 4q22 0 45 -4.5t42 -16t30.5 -31.5t11.5 -52q0 -26 -8 -47.5t-21.5 -40.5t-31 -36.5t-36.5 -34.5l-48 -44h150v-73z" />
    <glyph glyph-name="onesuperior" unicode="&#xb9;" horiz-adv-x="350" 
d="M222 568l-20 -290h-70l18 276l-82 -16l3 47l163 67z" />
    <glyph glyph-name="threequarters" unicode="&#xbe;" horiz-adv-x="640" 
d="M375 133h98l9 145zM576 75h-39l-6 -75h-67l5 75h-154l-12 38l204 261h49l-15 -241h53zM190 77l-32 25l338 463l32 -25zM269 574q0 -20 -9.5 -36t-23.5 -28.5t-30.5 -21.5t-30.5 -15q42 -3 61.5 -28.5t19.5 -54.5q0 -33 -12 -56t-33 -38t-50 -21.5t-64 -6.5q-17 0 -38 2.5
t-37 7.5l20 46q15 -5 29.5 -7.5t27.5 -2.5q41 0 64.5 17t23.5 47q0 12 -3 22t-11.5 17t-24 11t-39.5 4h-29l10 47h42q11 7 23 15.5t22 19t16.5 22.5t6.5 26q0 38 -56 38q-17 0 -33 -3t-29 -7l14 51q14 2 29 5t35 3q55 0 82 -19.5t27 -55.5z" />
    <glyph glyph-name="onehalf" unicode="&#xbd;" horiz-adv-x="640" 
d="M525 0h-191l-5 26q20 17 49.5 42t56.5 54.5t46.5 62t19.5 65.5q0 30 -21 41t-53 11q-20 0 -33.5 -8t-26.5 -13l19 79q13 4 21 6.5t14.5 4t13 2.5t17.5 1q22 0 45 -4.5t42 -16.5t30.5 -32.5t11.5 -51.5q0 -26 -8 -47.5t-21.5 -41t-31 -37t-36.5 -34.5l-48 -44h150v-72z
M130 77l-32 25l338 463l32 -25zM192 568l-20 -290h-70l18 276l-82 -16l3 47l163 67z" />
    <glyph glyph-name="onequarter" unicode="&#xbc;" horiz-adv-x="640" 
d="M360 133h99l9 145zM561 75h-39l-6 -75h-66l5 75h-155l-12 38l205 261h48l-15 -241h53zM145 77l-32 25l338 463l32 -25zM187 568l-20 -290h-70l18 276l-82 -16l3 47l163 67z" />
  </font>
</defs>
</svg>
